<?xml version="1.0" encoding="UTF-8"?>
<svg version="1.1" xmlns="http://www.w3.org/2000/svg" width="500" height="500">
<path d="M0 0 C165 0 330 0 500 0 C500 165 500 330 500 500 C335 500 170 500 0 500 C0 335 0 170 0 0 Z " fill="#1E0056" transform="translate(0,0)"/>
<path d="M0 0 C12.21357498 1.22343111 21.25937259 12.94205436 29.30078125 21.23046875 C31.90521548 23.90529309 34.19021 26.15675459 37.30078125 28.23046875 C37.30078125 28.89046875 37.30078125 29.55046875 37.30078125 30.23046875 C37.91953125 30.31296875 38.53828125 30.39546875 39.17578125 30.48046875 C41.30078125 31.23046875 41.30078125 31.23046875 42.42578125 33.23046875 C42.71453125 33.89046875 43.00328125 34.55046875 43.30078125 35.23046875 C43.96078125 35.56046875 44.62078125 35.89046875 45.30078125 36.23046875 C45.63078125 37.22046875 45.96078125 38.21046875 46.30078125 39.23046875 C47.76313187 40.71676018 47.76313187 40.71676018 49.55078125 42.10546875 C53.45518509 45.33917745 57.0734632 48.63495529 60.17578125 52.66796875 C61.96084778 54.82054898 63.60628348 56.39974598 65.73828125 58.16796875 C71.27139419 62.79868559 75.80775422 67.58833117 76.6015625 75.0625 C76.63189836 82.77791933 76.62376845 88.81517635 71.05078125 94.54296875 C68.51600318 96.83633938 65.92478624 99.04028802 63.30078125 101.23046875 C60.62691612 103.78549543 58.25094707 106.29210577 55.92578125 109.16796875 C53.55577953 112.07457464 50.87540742 114.39783545 48 116.79296875 C44.81182713 119.49008971 41.97107031 122.35909298 39.42578125 125.66796875 C37.16920841 128.38913011 34.73860921 130.49915843 32.03515625 132.7578125 C28.86272957 135.45151713 26.01310317 138.2970814 23.48828125 141.60546875 C17.73832457 148.50541676 9.4274122 156.5454691 0.1875 157.43359375 C-6.01415493 157.56577822 -10.89292689 156.87101221 -15.6171875 152.42578125 C-20.74102443 146.82653677 -22.98444297 142.51201482 -23.01171875 134.79296875 C-23.03685547 133.15521484 -23.03685547 133.15521484 -23.0625 131.484375 C-22.362453 125.21406152 -19.16491431 121.3242002 -14.76953125 117.0078125 C-14.06121658 116.3058651 -14.06121658 116.3058651 -13.33859253 115.58973694 C-11.84076301 114.10854791 -10.33283744 112.638159 -8.82421875 111.16796875 C-7.81961654 110.17844044 -6.81570396 109.18821148 -5.8125 108.19726562 C-3.95878324 106.36789616 -2.10054604 104.54362592 -0.23876953 102.72241211 C2.29037607 100.24067887 4.79755532 97.73831412 7.30078125 95.23046875 C8.39887725 94.14235823 9.49772734 93.05500767 10.59765625 91.96875 C11.74872906 90.82685431 12.89977031 89.6849268 14.05078125 88.54296875 C14.63988281 87.96224609 15.22898437 87.38152344 15.8359375 86.78320312 C18.94984889 83.79891559 18.94984889 83.79891559 21.30078125 80.23046875 C21.96078125 80.23046875 22.62078125 80.23046875 23.30078125 80.23046875 C20.95222356 75.62368251 19.03696254 72.77902933 14.859375 69.6015625 C13.05970376 68.01839307 11.85232348 66.32407263 10.48828125 64.35546875 C7.65173009 60.38727514 4.36543785 57.81991125 0.4609375 54.9453125 C-2.1450517 52.87654349 -4.08692907 50.56878685 -6.1640625 47.98828125 C-7.90985285 45.98928467 -9.80355559 44.32470702 -11.82421875 42.60546875 C-16.42291624 38.66624031 -19.98278479 35.49926589 -20.69921875 29.23046875 C-21.35921875 29.23046875 -22.01921875 29.23046875 -22.69921875 29.23046875 C-23.51285083 19.88876706 -22.88937684 11.70469095 -16.69921875 4.23046875 C-13.41481397 2.48175851 -10.34512232 1.81408797 -6.69921875 1.23046875 C-4.87863699 -0.59011301 -2.42118236 0.05171457 0 0 Z " fill="#E23C9D" transform="translate(274.69921875,119.76953125)"/>
<path d="M0 0 C5.12689041 3.57364115 7.79871449 7.2452269 9.71484375 13.1953125 C10.51806134 21.49522756 8.31953652 28.87098539 3.234375 35.5078125 C0.94534273 38.04987405 -1.58875408 40.24465748 -4.22265625 42.421875 C-7.72473404 45.43313128 -10.88644707 48.78648035 -14.109375 52.08984375 C-15.06377715 53.06252446 -16.01820437 54.03518058 -16.97265625 55.0078125 C-17.45798828 55.50990234 -17.94332031 56.01199219 -18.44335938 56.52929688 C-19.68640231 57.78948523 -20.98215517 58.99722294 -22.28515625 60.1953125 C-22.94515625 60.1953125 -23.60515625 60.1953125 -24.28515625 60.1953125 C-24.54425781 60.7934375 -24.80335938 61.3915625 -25.0703125 62.0078125 C-26.37678665 64.36030615 -27.62631738 65.53627443 -29.72265625 67.1953125 C-33.49110663 70.26607078 -33.49110663 70.26607078 -36.28515625 74.1953125 C-36.28515625 77.50306719 -35.06622132 78.41958731 -32.72265625 80.8203125 C-31.91828125 81.6040625 -31.11390625 82.3878125 -30.28515625 83.1953125 C-30.28515625 83.8553125 -30.28515625 84.5153125 -30.28515625 85.1953125 C-29.74890625 85.4221875 -29.21265625 85.6490625 -28.66015625 85.8828125 C-23.03196001 88.99313148 -19.17892621 93.39164892 -15.0703125 98.22265625 C-13.4029186 100.06518124 -11.70283185 101.62084506 -9.78515625 103.1953125 C-6.44882972 105.93453361 -3.76401555 109.02456228 -0.984375 112.31640625 C0.57364618 114.0391837 2.12796761 115.40977305 3.96484375 116.8203125 C7.86725543 120.19057713 9.47600438 122.81355318 9.99609375 128 C10.22798727 135.74910831 9.17229008 140.46677323 4.90234375 146.9453125 C2.3712725 149.54870008 0.07044266 150.83879379 -3.28515625 152.1953125 C-4.27515625 152.1953125 -5.26515625 152.1953125 -6.28515625 152.1953125 C-6.28515625 152.8553125 -6.28515625 153.5153125 -6.28515625 154.1953125 C-15.52940446 154.69751512 -21.72825385 153.0770209 -28.72265625 146.81640625 C-30.93776562 144.51823028 -32.53293152 141.85386037 -34.28515625 139.1953125 C-36.21846228 138.10364975 -36.21846228 138.10364975 -38.28515625 137.1953125 C-41.01128923 134.67888205 -43.38251482 132.07548657 -45.72265625 129.1953125 C-48.35266857 126.11627369 -51.14765965 123.74452849 -54.28515625 121.1953125 C-59.22997395 116.51778224 -63.9923832 111.4794449 -68.28515625 106.1953125 C-68.28515625 105.5353125 -68.28515625 104.8753125 -68.28515625 104.1953125 C-68.90390625 103.9065625 -69.52265625 103.6178125 -70.16015625 103.3203125 C-72.28515625 102.1953125 -72.28515625 102.1953125 -74.28515625 100.1953125 C-74.28515625 99.2053125 -74.28515625 98.2153125 -74.28515625 97.1953125 C-75.60515625 96.8653125 -76.92515625 96.5353125 -78.28515625 96.1953125 C-78.28515625 95.5353125 -78.28515625 94.8753125 -78.28515625 94.1953125 C-79.02765625 93.9684375 -79.77015625 93.7415625 -80.53515625 93.5078125 C-83.82773095 91.9363564 -85.26012734 90.19535534 -87.28515625 87.1953125 C-87.28515625 86.5353125 -87.28515625 85.8753125 -87.28515625 85.1953125 C-87.94515625 85.1953125 -88.60515625 85.1953125 -89.28515625 85.1953125 C-90.74016024 82.28530453 -90.49413009 79.6863792 -90.53515625 76.4453125 C-90.5609375 75.23359375 -90.58671875 74.021875 -90.61328125 72.7734375 C-90.08214264 66.98149738 -87.51591891 63.09694989 -83.72265625 58.8203125 C-83.12324219 58.13195312 -82.52382812 57.44359375 -81.90625 56.734375 C-80.28515625 55.1953125 -80.28515625 55.1953125 -78.28515625 55.1953125 C-78.28515625 54.5353125 -78.28515625 53.8753125 -78.28515625 53.1953125 C-73.98283067 48.42787064 -73.98283067 48.42787064 -70.28515625 47.1953125 C-69.88296875 46.298125 -69.88296875 46.298125 -69.47265625 45.3828125 C-67.79212881 42.28710405 -65.18375274 41.12771016 -62.28515625 39.1953125 C-61.13507315 37.22858335 -61.13507315 37.22858335 -60.28515625 35.1953125 C-58.28515625 32.9453125 -58.28515625 32.9453125 -56.28515625 31.1953125 C-55.62515625 31.1953125 -54.96515625 31.1953125 -54.28515625 31.1953125 C-54.28515625 30.5353125 -54.28515625 29.8753125 -54.28515625 29.1953125 C-52.61848958 27.86197917 -50.95182292 26.52864583 -49.28515625 25.1953125 C-48.07572973 23.73126987 -46.86711853 22.26630975 -45.68359375 20.78125 C-43.59412167 18.41162523 -41.19018503 16.47503142 -38.73828125 14.4921875 C-37.15228014 13.23750547 -37.15228014 13.23750547 -36.28515625 11.1953125 C-35.62515625 11.1953125 -34.96515625 11.1953125 -34.28515625 11.1953125 C-34.28515625 10.5353125 -34.28515625 9.8753125 -34.28515625 9.1953125 C-33.62515625 9.1953125 -32.96515625 9.1953125 -32.28515625 9.1953125 C-32.28515625 8.5353125 -32.28515625 7.8753125 -32.28515625 7.1953125 C-31.62515625 7.1953125 -30.96515625 7.1953125 -30.28515625 7.1953125 C-30.28515625 6.5353125 -30.28515625 5.8753125 -30.28515625 5.1953125 C-29.62515625 5.1953125 -28.96515625 5.1953125 -28.28515625 5.1953125 C-28.28515625 4.5353125 -28.28515625 3.8753125 -28.28515625 3.1953125 C-20.56831201 -4.06759972 -9.18742269 -5.37342104 0 0 Z " fill="#E2379D" transform="translate(222.28515625,122.8046875)"/>
<path d="M0 0 C0.5775 0.7425 1.155 1.485 1.75 2.25 C3.90659314 4.99198619 3.90659314 4.99198619 6.25 7.1875 C8 9 8 9 8 11 C8.53625 11.226875 9.0725 11.45375 9.625 11.6875 C15.25319624 14.79781898 19.10623004 19.19633642 23.21484375 24.02734375 C24.88223765 25.86986874 26.5823244 27.42553256 28.5 29 C31.83632653 31.73922111 34.5211407 34.82924978 37.30078125 38.12109375 C38.85880243 39.8438712 40.41312386 41.21446055 42.25 42.625 C46.15241168 45.99526463 47.76116063 48.61824068 48.28125 53.8046875 C48.51314352 61.55379581 47.45744633 66.27146073 43.1875 72.75 C40.65642875 75.35338758 38.35559891 76.64348129 35 78 C34.01 78 33.02 78 32 78 C32 78.66 32 79.32 32 80 C22.75575179 80.50220262 16.5569024 78.8817084 9.5625 72.62109375 C7.34739063 70.32291778 5.75222473 67.65854787 4 65 C2.06669397 63.90833725 2.06669397 63.90833725 0 63 C-2.72613298 60.48356955 -5.09735857 57.88017407 -7.4375 55 C-10.06751232 51.92096119 -12.8625034 49.54921599 -16 47 C-20.9448177 42.32246974 -25.70722695 37.2841324 -30 32 C-30 31.34 -30 30.68 -30 30 C-30.928125 29.566875 -30.928125 29.566875 -31.875 29.125 C-34 28 -34 28 -36 26 C-36 25.01 -36 24.02 -36 23 C-34.30230469 22.96132812 -34.30230469 22.96132812 -32.5703125 22.921875 C-31.08850257 22.86560374 -29.60673323 22.80825618 -28.125 22.75 C-27.37863281 22.73582031 -26.63226563 22.72164062 -25.86328125 22.70703125 C-23.42861619 22.64013659 -23.42861619 22.64013659 -20 22 C-18.65488353 20.2163076 -18.65488353 20.2163076 -18 18 C-16.08203125 16.140625 -16.08203125 16.140625 -13.8125 14.25 C-9.99373496 10.96093463 -6.65494162 7.51484798 -3.41015625 3.6640625 C-2 2 -2 2 0 0 Z " fill="#A110D9" transform="translate(184,197)"/>
<path d="M0 0 C12.21357498 1.22343111 21.25937259 12.94205436 29.30078125 21.23046875 C31.90521548 23.90529309 34.19021 26.15675459 37.30078125 28.23046875 C37.30078125 28.89046875 37.30078125 29.55046875 37.30078125 30.23046875 C38.62078125 30.56046875 39.94078125 30.89046875 41.30078125 31.23046875 C41.39875 31.85695312 41.49671875 32.4834375 41.59765625 33.12890625 C41.7471875 33.94617188 41.89671875 34.7634375 42.05078125 35.60546875 C42.25960937 36.82363281 42.25960937 36.82363281 42.47265625 38.06640625 C43.11827386 40.40755967 43.11827386 40.40755967 45.37890625 41.51953125 C46.013125 41.75414062 46.64734375 41.98875 47.30078125 42.23046875 C47.30078125 45.23046875 47.30078125 45.23046875 46.30078125 47.23046875 C46.96078125 47.23046875 47.62078125 47.23046875 48.30078125 47.23046875 C48.30078125 46.57046875 48.30078125 45.91046875 48.30078125 45.23046875 C51.78211956 46.62300407 52.77964158 47.86223091 54.30078125 51.23046875 C54.96078125 51.56046875 55.62078125 51.89046875 56.30078125 52.23046875 C56.63078125 53.22046875 56.96078125 54.21046875 57.30078125 55.23046875 C56.37136719 55.35421875 55.44195312 55.47796875 54.484375 55.60546875 C46.98595748 56.85650817 42.26640363 57.90606419 37.69140625 64.15625 C37.2325 64.84074219 36.77359375 65.52523437 36.30078125 66.23046875 C34.68757622 68.29034076 33.02485365 70.26010029 31.30078125 72.23046875 C30.64078125 72.23046875 29.98078125 72.23046875 29.30078125 72.23046875 C29.30078125 72.89046875 29.30078125 73.55046875 29.30078125 74.23046875 C27.34151062 75.94483055 25.34197913 77.61452043 23.30078125 79.23046875 C22.76453125 78.34359375 22.22828125 77.45671875 21.67578125 76.54296875 C19.77400873 73.67022083 17.5860573 71.75822717 14.859375 69.63671875 C13.08045432 68.03167753 11.8536506 66.32220577 10.48828125 64.35546875 C7.65173009 60.38727514 4.36543785 57.81991125 0.4609375 54.9453125 C-2.1450517 52.87654349 -4.08692907 50.56878685 -6.1640625 47.98828125 C-7.90985285 45.98928467 -9.80355559 44.32470702 -11.82421875 42.60546875 C-16.42291624 38.66624031 -19.98278479 35.49926589 -20.69921875 29.23046875 C-21.35921875 29.23046875 -22.01921875 29.23046875 -22.69921875 29.23046875 C-23.51285083 19.88876706 -22.88937684 11.70469095 -16.69921875 4.23046875 C-13.41481397 2.48175851 -10.34512232 1.81408797 -6.69921875 1.23046875 C-4.87863699 -0.59011301 -2.42118236 0.05171457 0 0 Z " fill="#7D0CEC" transform="translate(274.69921875,119.76953125)"/>
<path d="M0 0 C18.89333333 0 18.89333333 0 27.51953125 7.40234375 C31.61588242 11.82294435 31.35937927 16.24351586 31.25390625 22.0234375 C30.74500817 27.98928889 28.3115537 32.80190824 24 37 C16.27887056 42.33333094 9.8001671 41 0 41 C0 27.47 0 13.94 0 0 Z " fill="#D5D1DC" transform="translate(275,299)"/>
<path d="M0 0 C18.88888889 0 18.88888889 0 23.75 4.58984375 C24.1625 5.05519531 24.575 5.52054687 25 6 C25.33 6.33 25.66 6.66 26 7 C26.46794633 11.35550042 26.46279496 14.99026554 24.625 19 C23 21 23 21 21 22 C21.9196186 26.47124904 23.98094536 30.34831935 25.94140625 34.44140625 C27 37 27 37 27 40 C24.03 40 21.06 40 18 40 C17.34865075 38.43979133 16.70417036 36.87671421 16.0625 35.3125 C15.70285156 34.44238281 15.34320313 33.57226562 14.97265625 32.67578125 C14.0429688 30.11820735 13.45837375 27.6778677 13 25 C11.02 25 9.04 25 7 25 C7 29.95 7 34.9 7 40 C4.69 40 2.38 40 0 40 C0 26.8 0 13.6 0 0 Z " fill="#DAD7DD" transform="translate(193,299)"/>
<path d="M0 0 C2.97 0 5.94 0 9 0 C9.43570312 1.258125 9.87140625 2.51625 10.3203125 3.8125 C10.92141206 5.54182765 11.52301078 7.27098185 12.125 9 C12.43832275 9.90032959 12.75164551 10.80065918 13.07446289 11.72827148 C15.34479922 18.21650011 17.71112992 24.66106301 20.22119141 31.06054688 C21.30624258 33.87766398 22 35.94896399 22 39 C19.03 39 16.06 39 13 39 C12.67 36.36 12.34 33.72 12 31 C7.05 31 2.1 31 -3 31 C-3.495 33.475 -3.495 33.475 -4 36 C-4.33 36.99 -4.66 37.98 -5 39 C-7.64 39 -10.28 39 -13 39 C-12.26170842 34.51287035 -10.80624392 30.33965965 -9.27734375 26.07421875 C-9.01240616 25.32662796 -8.74746857 24.57903717 -8.47450256 23.80879211 C-7.63203514 21.433877 -6.78484098 19.0606801 -5.9375 16.6875 C-5.36361894 15.07237693 -4.79004781 13.4571437 -4.21679688 11.84179688 C-2.81478382 7.89324655 -1.4085307 3.9462298 0 0 Z " fill="#D4D0D9" transform="translate(331,300)"/>
<path d="M0 0 C6.93 0 13.86 0 21 0 C21 2.31 21 4.62 21 7 C16.71 7 12.42 7 8 7 C8 9.31 8 11.62 8 14 C11.63 14 15.26 14 19 14 C19 16.64 19 19.28 19 22 C15.37 22 11.74 22 8 22 C8 25.3 8 28.6 8 32 C12.62 32 17.24 32 22 32 C22 34.31 22 36.62 22 39 C14.74 39 7.48 39 0 39 C0 26.13 0 13.26 0 0 Z " fill="#CECAD1" transform="translate(236,300)"/>
<path d="M0 0 C6.93 0 13.86 0 21 0 C21 2.31 21 4.62 21 7 C16.71 7 12.42 7 8 7 C8 9.31 8 11.62 8 14 C11.63 14 15.26 14 19 14 C19 16.64 19 19.28 19 22 C15.37 22 11.74 22 8 22 C8 25.3 8 28.6 8 32 C12.62 32 17.24 32 22 32 C22 34.31 22 36.62 22 39 C14.74 39 7.48 39 0 39 C0 26.13 0 13.26 0 0 Z " fill="#D0CCD6" transform="translate(154,300)"/>
<path d="M0 0 C2.97 0 5.94 0 9 0 C9.20681396 0.6612085 9.41362793 1.32241699 9.62670898 2.00366211 C10.56043664 4.98262306 11.4989024 7.96007005 12.4375 10.9375 C12.76298828 11.97841797 13.08847656 13.01933594 13.42382812 14.09179688 C13.73642578 15.08115234 14.04902344 16.07050781 14.37109375 17.08984375 C14.65911865 18.00628662 14.94714355 18.92272949 15.24389648 19.86694336 C15.81203937 21.95544926 15.81203937 21.95544926 17 23 C19.31 15.41 21.62 7.82 24 0 C26.64 0 29.28 0 32 0 C31.37549639 4.25044801 30.41531538 8.21649886 29.125 12.3125 C28.76921875 13.44300781 28.4134375 14.57351563 28.046875 15.73828125 C24.4774672 26.85938391 24.4774672 26.85938391 22.875 30.6875 C21.83762001 33.42914712 21.40417071 36.10344325 21 39 C18.36 39 15.72 39 13 39 C12.78384033 38.37657715 12.56768066 37.7531543 12.3449707 37.11083984 C11.33480487 34.19866456 10.32373413 31.2868045 9.3125 28.375 C8.94962891 27.32932861 8.58675781 26.28365723 8.21289062 25.20629883 C5.8005792 18.26661875 3.34201255 11.3471329 0.8125 4.44921875 C0 2 0 2 0 0 Z " fill="#CEC8D7" transform="translate(107,300)"/>
<path d="M0 0 C1.9375 0.8125 1.9375 0.8125 4 2 C4.33 2.99 4.66 3.98 5 5 C6.46235062 6.48629143 6.46235062 6.48629143 8.25 7.875 C12.15440384 11.1087087 15.77268195 14.40448654 18.875 18.4375 C20.66006653 20.59008023 22.30550223 22.16927723 24.4375 23.9375 C29.97061294 28.56821684 34.50697297 33.35786242 35.30078125 40.83203125 C35.33111711 48.54745058 35.3229872 54.5847076 29.75 60.3125 C27.21522193 62.60587063 24.62400499 64.80981927 22 67 C19.30378885 69.57637954 16.94005446 72.07572069 14.625 75 C11.66230119 78.3859415 8.7300835 80.51327767 5 83 C4.67 81.35 4.34 79.7 4 78 C5.32 78 6.64 78 8 78 C8.495 76.515 8.495 76.515 9 75 C9.99 75 10.98 75 12 75 C12 74.34 12 73.68 12 73 C14 71 14 71 17 70 C17 68.68 17 67.36 17 66 C17.99 65.67 18.98 65.34 20 65 C20.2475 64.01 20.2475 64.01 20.5 63 C20.7475 62.01 20.7475 62.01 21 61 C21.99 60.67 22.98 60.34 24 60 C24.33 59.01 24.66 58.02 25 57 C25.33 57.99 25.66 58.98 26 60 C26.433125 58.906875 26.86625 57.81375 27.3125 56.6875 C28.28998393 54.35837561 28.90929498 53.08746555 30.75 51.3125 C31.1625 50.879375 31.575 50.44625 32 50 C31.7018576 48.65835921 31.35858516 47.32676508 31 46 C31.226875 44.72125 31.45375 43.4425 31.6875 42.125 C32.24055928 38.50988079 32.03735832 38.06507578 30.0625 34.625 C29.0415625 33.325625 29.0415625 33.325625 28 32 C28 31.34 28 30.68 28 30 C26.35 29.67 24.7 29.34 23 29 C23 28.34 23 27.68 23 27 C22.01 27.33 21.02 27.66 20 28 C19.505 26.515 19.505 26.515 19 25 C9.59145158 24.29435887 3.92156529 28.49617842 -2.8984375 34.35546875 C-5 36 -5 36 -7 36 C-7.20625 36.5775 -7.4125 37.155 -7.625 37.75 C-9.49750888 40.81410544 -11.96958519 42.15539968 -15 44 C-15 43.01 -15 42.02 -15 41 C-13.515 40.505 -13.515 40.505 -12 40 C-12 39.34 -12 38.68 -12 38 C-11.34 38 -10.68 38 -10 38 C-9.59394531 37.11828125 -9.59394531 37.11828125 -9.1796875 36.21875 C-8.0130184 34.02448495 -6.75960911 32.363285 -5.125 30.5 C-4.63257813 29.9328125 -4.14015625 29.365625 -3.6328125 28.78125 C-3.09398437 28.1934375 -2.55515625 27.605625 -2 27 C-1.41476562 26.30390625 -0.82953125 25.6078125 -0.2265625 24.890625 C2.65220354 22.4461991 5.0678999 21.98642002 8.75 21.25 C9.92046875 21.00765625 11.0909375 20.7653125 12.296875 20.515625 C13.18890625 20.34546875 14.0809375 20.1753125 15 20 C14.04663979 18.68388323 13.08714226 17.37221039 12.125 16.0625 C11.32449219 14.96615234 11.32449219 14.96615234 10.5078125 13.84765625 C9.11987896 11.88901765 9.11987896 11.88901765 7 11 C7 11.66 7 12.32 7 13 C6.34 13 5.68 13 5 13 C5.268125 12.443125 5.53625 11.88625 5.8125 11.3125 C5.9053125 10.1678125 5.9053125 10.1678125 6 9 C4.37660195 7.29115995 2.70680947 5.62553283 1 4 C0.1875 1.6875 0.1875 1.6875 0 0 Z " fill="#BD1AA0" transform="translate(316,154)"/>
<path d="M0 0 C0.66 0.33 1.32 0.66 2 1 C2 1.33 2 1.66 2 2 C3.65 2 5.3 2 7 2 C7 2.66 7 3.32 7 4 C6.39671875 4.26554688 5.7934375 4.53109375 5.171875 4.8046875 C3.97304687 5.33449219 3.97304687 5.33449219 2.75 5.875 C1.96109375 6.22304687 1.1721875 6.57109375 0.359375 6.9296875 C-1.78868608 7.90413905 -3.89829202 8.92986429 -6 10 C-5.34 11.32 -4.68 12.64 -4 14 C-5.65 14.33 -7.3 14.66 -9 15 C-9 15.99 -9 16.98 -9 18 C-10.32 18.33 -11.64 18.66 -13 19 C-13.0825 19.556875 -13.165 20.11375 -13.25 20.6875 C-14.22610013 23.69714206 -15.95188814 25.62154752 -18 28 C-16.68 27.67 -15.36 27.34 -14 27 C-13.67 28.65 -13.34 30.3 -13 32 C-13.68707031 32.02578125 -14.37414062 32.0515625 -15.08203125 32.078125 C-15.98308594 32.13484375 -16.88414062 32.1915625 -17.8125 32.25 C-18.70582031 32.29640625 -19.59914062 32.3428125 -20.51953125 32.390625 C-23.16053515 32.79121416 -23.16053515 32.79121416 -24.82421875 35.046875 C-25.21222656 35.69140625 -25.60023438 36.3359375 -26 37 C-24.515 36.505 -24.515 36.505 -23 36 C-23 36.66 -23 37.32 -23 38 C-25.33333333 38 -27.66666667 38 -30 38 C-30 39.98 -30 41.96 -30 44 C-31.11375 44.268125 -32.2275 44.53625 -33.375 44.8125 C-37.21840951 45.65809019 -37.21840951 45.65809019 -39 49 C-38.67 49.99 -38.34 50.98 -38 52 C-37.93259135 53.56118428 -37.91485544 55.1250252 -37.9375 56.6875 C-37.94652344 57.49574219 -37.95554688 58.30398437 -37.96484375 59.13671875 C-37.97644531 59.75160156 -37.98804688 60.36648437 -38 61 C-37.195625 61.20625 -36.39125 61.4125 -35.5625 61.625 C-34.716875 62.07875 -33.87125 62.5325 -33 63 C-32.1875 66.125 -32.1875 66.125 -32 69 C-32.99 69 -33.98 69 -35 69 C-39 64.65714286 -39 64.65714286 -39 62 C-39.66 62 -40.32 62 -41 62 C-42.45500399 59.08999203 -42.20897384 56.4910667 -42.25 53.25 C-42.27578125 52.03828125 -42.3015625 50.8265625 -42.328125 49.578125 C-41.79698639 43.78618488 -39.23076266 39.90163739 -35.4375 35.625 C-34.83808594 34.93664062 -34.23867187 34.24828125 -33.62109375 33.5390625 C-32 32 -32 32 -30 32 C-30 31.34 -30 30.68 -30 30 C-25.69767442 25.23255814 -25.69767442 25.23255814 -22 24 C-21.731875 23.401875 -21.46375 22.80375 -21.1875 22.1875 C-19.50697256 19.09179155 -16.89859649 17.93239766 -14 16 C-12.8499169 14.03327085 -12.8499169 14.03327085 -12 12 C-10 9.75 -10 9.75 -8 8 C-7.34 8 -6.68 8 -6 8 C-6 7.34 -6 6.68 -6 6 C-4.34997172 4.64613064 -2.6825613 3.31321858 -1 2 C-0.67 1.34 -0.34 0.68 0 0 Z " fill="#EA477F" transform="translate(174,146)"/>
<path d="M0 0 C2.97 0 5.94 0 9 0 C9 12.87 9 25.74 9 39 C6.03 39 3.06 39 0 39 C0 26.13 0 13.26 0 0 Z " fill="#D9D9D8" transform="translate(367,300)"/>
<path d="M0 0 C16.84417829 -1.03362003 16.84417829 -1.03362003 22 2.9375 C23.75 4.58984375 23.75 4.58984375 25 6 C25.33 6.33 25.66 6.66 26 7 C26.45654104 11.2493435 26.46440066 14.93187848 24.75 18.875 C21.55172414 22.75862069 21.55172414 22.75862069 19 24 C16.22979669 23.94151202 13.74333383 23.50294454 11 23 C11.66 22.67 12.32 22.34 13 22 C13 21.34 13 20.68 13 20 C14.32 19.67 15.64 19.34 17 19 C13.7 19 10.4 19 7 19 C7 15.04 7 11.08 7 7 C7.969375 6.87625 8.93875 6.7525 9.9375 6.625 C10.948125 6.41875 11.95875 6.2125 13 6 C13.33 5.34 13.66 4.68 14 4 C11.69 4 9.38 4 7 4 C6.67 4.99 6.34 5.98 6 7 C5.01 7 4.02 7 3 7 C3.33 5.35 3.66 3.7 4 2 C2.68 1.34 1.36 0.68 0 0 Z " fill="#CFCBD5" transform="translate(193,299)"/>
<path d="M0 0 C9.35714286 0 9.35714286 0 13 3 C15.86361078 7.7324936 15.74590065 12.73433413 14.53515625 18.03515625 C13.34071581 21.36404056 12.09673411 22.93336094 9.1875 24.9375 C6 26 6 26 0 26 C0 17.42 0 8.84 0 0 Z " fill="#240858" transform="translate(283,307)"/>
<path d="M0 0 C18.89333333 0 18.89333333 0 27.51953125 7.40234375 C30.9835062 11.14051197 31.23403312 14.23447648 31.125 19.25 C31.10695313 20.32765625 31.08890625 21.4053125 31.0703125 22.515625 C31.04710937 23.33546875 31.02390625 24.1553125 31 25 C30.34 23.68 29.68 22.36 29 21 C27.35 23.97 25.7 26.94 24 30 C23.34 30 22.68 30 22 30 C21.67 30.66 21.34 31.32 21 32 C20.67 31.34 20.34 30.68 20 30 C20.4640625 28.7315625 20.4640625 28.7315625 20.9375 27.4375 C22.42275724 22.63225597 23.05893286 17.54777435 21.0859375 12.80078125 C19.6345907 10.39405149 18.66774193 9.91264855 16 9 C13.33343287 8.55557214 10.69344718 8.26934472 8 8 C8 7.67 8 7.34 8 7 C11.465 6.505 11.465 6.505 15 6 C14.67 5.34 14.34 4.68 14 4 C15.32 4 16.64 4 18 4 C18 3.34 18 2.68 18 2 C12.39 1.67 6.78 1.34 1 1 C1 13.87 1 26.74 1 40 C5.62 40 10.24 40 15 40 C15 40.33 15 40.66 15 41 C10.05 41 5.1 41 0 41 C0 27.47 0 13.94 0 0 Z " fill="#BCB3CE" transform="translate(275,299)"/>
<path d="M0 0 C0.495 0.99 0.495 0.99 1 2 C0.67 2.99 0.34 3.98 0 5 C-0.66 5 -1.32 5 -2 5 C-1.505 6.485 -1.505 6.485 -1 8 C-1.5053125 8.32613281 -2.010625 8.65226563 -2.53125 8.98828125 C-3.1809375 9.42527344 -3.830625 9.86226562 -4.5 10.3125 C-5.1496875 10.74175781 -5.799375 11.17101562 -6.46875 11.61328125 C-6.9740625 12.07089844 -7.479375 12.52851563 -8 13 C-8 13.99 -8 14.98 -8 16 C-8.598125 16.103125 -9.19625 16.20625 -9.8125 16.3125 C-12.36316765 17.1141384 -13.36691995 17.90032564 -15 20 C-15.165 20.70125 -15.33 21.4025 -15.5 22.125 C-15.7475 23.053125 -15.7475 23.053125 -16 24 C-16.99 24.33 -17.98 24.66 -19 25 C-20.69882448 27.49759982 -20.69882448 27.49759982 -22 30 C-21.34 30.33 -20.68 30.66 -20 31 C-20.62648438 31.17015625 -21.25296875 31.3403125 -21.8984375 31.515625 C-23.12433594 31.87914062 -23.12433594 31.87914062 -24.375 32.25 C-25.59316406 32.59804687 -25.59316406 32.59804687 -26.8359375 32.953125 C-29.53036769 34.25656777 -29.9286408 35.25651942 -31 38 C-31.36480469 38.6084375 -31.72960937 39.216875 -32.10546875 39.84375 C-33.32675354 42.787633 -33.30156822 45.32249565 -33.3125 48.5 C-33.32925781 49.6240625 -33.34601563 50.748125 -33.36328125 51.90625 C-32.97084661 55.24827401 -32.36821904 56.64906723 -30 59 C-29.34 59 -28.68 59 -28 59 C-27.54625 59.825 -27.0925 60.65 -26.625 61.5 C-26.08875 62.325 -25.5525 63.15 -25 64 C-23.68 64 -22.36 64 -21 64 C-21 64.66 -21 65.32 -21 66 C-27.90777852 65.88090037 -27.90777852 65.88090037 -30.796875 63.55078125 C-35.43351847 58.25995789 -37.28741576 53.66134061 -37.3125 46.5625 C-37.32925781 45.47066406 -37.34601563 44.37882812 -37.36328125 43.25390625 C-36.66323425 36.98359277 -33.46569556 33.09373145 -29.0703125 28.77734375 C-28.59810272 28.30937881 -28.12589294 27.84141388 -27.63937378 27.35926819 C-26.14154426 25.87807916 -24.63361869 24.40769025 -23.125 22.9375 C-22.12039779 21.94797169 -21.11648521 20.95774273 -20.11328125 19.96679688 C-18.25956449 18.13742741 -16.40132729 16.31315717 -14.53955078 14.49194336 C-12.01040755 12.01021245 -9.50195003 9.5091159 -7 7 C-4.66666667 4.66666667 -2.33333333 2.33333333 0 0 Z " fill="#E76090" transform="translate(289,208)"/>
<path d="M0 0 C5.12689041 3.57364115 7.79871449 7.2452269 9.71484375 13.1953125 C10.51706825 21.48496567 8.32673973 28.86256408 3.24609375 35.4921875 C-0.05844509 39.16764397 -3.83501121 42.97023998 -8.28515625 45.1953125 C-8.28515625 43.8753125 -8.28515625 42.5553125 -8.28515625 41.1953125 C-7.62515625 41.1953125 -6.96515625 41.1953125 -6.28515625 41.1953125 C-6.22328125 40.4115625 -6.16140625 39.6278125 -6.09765625 38.8203125 C-5.82953125 37.9540625 -5.56140625 37.0878125 -5.28515625 36.1953125 C-3.62442776 35.51398799 -1.95738925 34.84789123 -0.28515625 34.1953125 C1.64163264 30.74737448 2.30511492 26.86928231 3.20703125 23.046875 C3.71484375 21.1953125 3.71484375 21.1953125 4.83984375 19.0078125 C5.97218893 16.66224034 5.8575814 14.7645902 5.71484375 12.1953125 C5.05484375 11.8653125 4.39484375 11.5353125 3.71484375 11.1953125 C4.04484375 9.8753125 4.37484375 8.5553125 4.71484375 7.1953125 C4.09609375 6.9065625 3.47734375 6.6178125 2.83984375 6.3203125 C0.71484375 5.1953125 0.71484375 5.1953125 -1.28515625 3.1953125 C-1.61515625 3.8553125 -1.94515625 4.5153125 -2.28515625 5.1953125 C-3.93515625 5.1953125 -5.58515625 5.1953125 -7.28515625 5.1953125 C-7.61515625 4.2053125 -7.94515625 3.2153125 -8.28515625 2.1953125 C-13.89515625 2.1953125 -19.50515625 2.1953125 -25.28515625 2.1953125 C-20.08733085 -5.6014256 -7.3162039 -4.27900678 0 0 Z " fill="#DB25AE" transform="translate(222.28515625,122.8046875)"/>
<path d="M0 0 C0 0.66 0 1.32 0 2 C0.66 2 1.32 2 2 2 C2 1.34 2 0.68 2 0 C5.18985607 -1.59492803 8.52932887 -1.37616681 12 -1 C14 0.0625 14 0.0625 15 2 C15.65882353 8.14901961 15.65882353 8.14901961 13.5 10.9375 C13.005 11.288125 12.51 11.63875 12 12 C11.34 11.67 10.68 11.34 10 11 C10.33 10.34 10.66 9.68 11 9 C11.04022391 6.6670134 11.04320247 4.33293334 11 2 C9.68 2 8.36 2 7 2 C7 5.3 7 8.6 7 12 C6.01 12 5.02 12 4 12 C4.33 12.66 4.66 13.32 5 14 C4.13375 13.649375 3.2675 13.29875 2.375 12.9375 C-0.92992478 11.74383799 -0.92992478 11.74383799 -4.0625 12.625 C-7 13 -7 13 -9.875 11.4375 C-12 9 -12 9 -12.5625 6 C-12 3 -12 3 -10.5 0.5625 C-6.73872372 -1.78829768 -4.27972524 -0.85594505 0 0 Z " fill="#30185F" transform="translate(246,353)"/>
<path d="M0 0 C6.93 0 13.86 0 21 0 C21 2.31 21 4.62 21 7 C17.04 7 13.08 7 9 7 C9.33 6.01 9.66 5.02 10 4 C10 4.66 10 5.32 10 6 C11.32 6 12.64 6 14 6 C13.67 4.68 13.34 3.36 13 2 C9.04 1.67 5.08 1.34 1 1 C1.33 12.55 1.66 24.1 2 36 C2.66 36 3.32 36 4 36 C4 36.66 4 37.32 4 38 C5.98491642 37.73323796 5.98491642 37.73323796 8 37 C8.33 36.01 8.66 35.02 9 34 C7.35 33.34 5.7 32.68 4 32 C4.66 31.67 5.32 31.34 6 31 C5.67 28.36 5.34 25.72 5 23 C5.66 23 6.32 23 7 23 C7 25.97 7 28.94 7 32 C11.95 32 16.9 32 22 32 C22 34.31 22 36.62 22 39 C14.74 39 7.48 39 0 39 C0 26.13 0 13.26 0 0 Z " fill="#DCD0EB" transform="translate(236,300)"/>
<path d="M0 0 C2.45823172 3.68734758 3.01242616 6.69699971 4 11 C5.65 11 7.3 11 9 11 C9.66 9.68 10.32 8.36 11 7 C12.17495143 9.93425371 13.33850852 12.87289513 14.5 15.8125 C14.83386719 16.64587891 15.16773438 17.47925781 15.51171875 18.33789062 C15.82753906 19.14033203 16.14335937 19.94277344 16.46875 20.76953125 C16.90864258 21.87711792 16.90864258 21.87711792 17.35742188 23.00708008 C18 25 18 25 18 28 C15.03 28 12.06 28 9 28 C8.67 25.36 8.34 22.72 8 20 C3.05 20 -1.9 20 -7 20 C-7 19.67 -7 19.34 -7 19 C-3.04 18.67 0.92 18.34 5 18 C5 16.35 5 14.7 5 13 C2.03 13 -0.94 13 -4 13 C-3.50269348 8.02693484 -2.44697666 4.36200187 0 0 Z " fill="#BDB6C7" transform="translate(335,311)"/>
<path d="M0 0 C1.98 0.33 3.96 0.66 6 1 C4.43306074 4.84612364 1.94435097 7.12412231 -1 10 C-1.78375 10.969375 -2.5675 11.93875 -3.375 12.9375 C-5.74880945 15.84877574 -8.43214966 18.17606939 -11.31640625 20.5703125 C-12.75232798 21.78967991 -14.10544743 23.10544743 -15.4375 24.4375 C-27.9719523 36.9719523 -27.9719523 36.9719523 -37.5 37.375 C-41.91742797 37.23861286 -45.08753805 35.99785291 -49 34 C-46.43335871 32.71667936 -44.67490819 32.97169257 -41.8125 33.0625 C-37.06966424 33.12474194 -33.48203593 32.430437 -29 31 C-28.34 31.33 -27.68 31.66 -27 32 C-26.67 30.68 -26.34 29.36 -26 28 C-24.68 27.67 -23.36 27.34 -22 27 C-22 26.34 -22 25.68 -22 25 C-20.68 25 -19.36 25 -18 25 C-17.87625 24.38125 -17.7525 23.7625 -17.625 23.125 C-17 21 -17 21 -15 19 C-14.01 19 -13.02 19 -12 19 C-11.979375 18.113125 -11.95875 17.22625 -11.9375 16.3125 C-10.75373552 12.12986551 -9.18446132 11.4611969 -5.65625 9.234375 C-3.37738308 7.53597419 -2.69599756 5.70665717 -2 3 C-1.34 3 -0.68 3 0 3 C0 2.01 0 1.02 0 0 Z " fill="#D540A0" transform="translate(310,240)"/>
<path d="M0 0 C6.93 0 13.86 0 21 0 C21 2.31 21 4.62 21 7 C20.34 7 19.68 7 19 7 C18.731875 6.360625 18.46375 5.72125 18.1875 5.0625 C17.11332248 2.66868314 17.11332248 2.66868314 14 2 C12.10787263 1.77820215 10.21115528 1.59385985 8.3125 1.4375 C7.31863281 1.35371094 6.32476562 1.26992188 5.30078125 1.18359375 C4.16189453 1.09271484 4.16189453 1.09271484 3 1 C2.97534902 5.96622349 2.95716351 10.93241166 2.94506836 15.89868164 C2.9400281 17.58944316 2.93319595 19.28020029 2.92456055 20.97094727 C2.91248143 23.39600707 2.90676877 25.82100944 2.90234375 28.24609375 C2.89718246 29.00651474 2.89202118 29.76693573 2.88670349 30.55039978 C2.88650762 32.3673257 2.93802723 34.18413127 3 36 C5.11925604 38.11925604 9.6196093 37.41831017 12.5625 37.5625 C13.77196289 37.62727539 13.77196289 37.62727539 15.00585938 37.69335938 C17.00368805 37.79975262 19.0018207 37.90040888 21 38 C21 36.35 21 34.7 21 33 C18.03 33 15.06 33 12 33 C11.67 33.99 11.34 34.98 11 36 C10.34 36 9.68 36 9 36 C9 34.68 9 33.36 9 32 C13.29 32 17.58 32 22 32 C22 34.31 22 36.62 22 39 C14.74 39 7.48 39 0 39 C0 26.13 0 13.26 0 0 Z " fill="#DBD2E3" transform="translate(154,300)"/>
<path d="M0 0 C0.66 0.33 1.32 0.66 2 1 C2 1.33 2 1.66 2 2 C3.65 2 5.3 2 7 2 C7 2.66 7 3.32 7 4 C6.39671875 4.26554688 5.7934375 4.53109375 5.171875 4.8046875 C4.37265625 5.15789062 3.5734375 5.51109375 2.75 5.875 C1.96109375 6.22304687 1.1721875 6.57109375 0.359375 6.9296875 C-1.78868608 7.90413905 -3.89829202 8.92986429 -6 10 C-5.34 11.32 -4.68 12.64 -4 14 C-5.65 14.33 -7.3 14.66 -9 15 C-9 15.99 -9 16.98 -9 18 C-10.32 18.33 -11.64 18.66 -13 19 C-13.0825 19.556875 -13.165 20.11375 -13.25 20.6875 C-14.22610013 23.69714206 -15.95188814 25.62154752 -18 28 C-16.68 27.67 -15.36 27.34 -14 27 C-13.67 28.65 -13.34 30.3 -13 32 C-16.96 31.67 -20.92 31.34 -25 31 C-23.31112111 24.24448446 -21.29348096 20.8999415 -15.5703125 17.15234375 C-13.59168556 15.70036627 -12.93905253 14.23927912 -12 12 C-10 9.75 -10 9.75 -8 8 C-7.34 8 -6.68 8 -6 8 C-6 7.34 -6 6.68 -6 6 C-4.34997172 4.64613064 -2.6825613 3.31321858 -1 2 C-0.67 1.34 -0.34 0.68 0 0 Z " fill="#C0469B" transform="translate(174,146)"/>
<path d="M0 0 C4.41482097 1.38351784 6.54161041 3.36451658 9.5 6.875 C12.45119599 10.35616429 15.41777936 13.1798263 19 16 C22.95845824 21.45994239 22.64351199 27.53009562 22 34 C20.51430686 39.94277254 17.06022858 44.62651428 12 48 C11.01 48 10.02 48 9 48 C9 47.34 9 46.68 9 46 C11.475 45.505 11.475 45.505 14 45 C14 42.69 14 40.38 14 38 C14.99 37.505 14.99 37.505 16 37 C16 34.69 16 32.38 16 30 C17.32 29.67 18.64 29.34 20 29 C19.67 28.01 19.34 27.02 19 26 C18.34 26 17.68 26 17 26 C16.87625 24.9275 16.7525 23.855 16.625 22.75 C15.990765 18.56176192 15.990765 18.56176192 14 15 C13.195625 14.71125 12.39125 14.4225 11.5625 14.125 C8.02434982 12.57166577 7.60602759 10.42153705 6 7 C3.95053601 5.14684743 3.95053601 5.14684743 2 4 C1.67 4.66 1.34 5.32 1 6 C0.34 6 -0.32 6 -1 6 C-0.67 4.02 -0.34 2.04 0 0 Z M17 31 C18 33 18 33 18 33 Z " fill="#B21CA6" transform="translate(210,226)"/>
<path d="M0 0 C2.97 0 5.94 0 9 0 C9 12.87 9 25.74 9 39 C6.03 39 3.06 39 0 39 C0 26.13 0 13.26 0 0 Z M2 1 C2 12.88 2 24.76 2 37 C3.65 37.33 5.3 37.66 7 38 C7 25.79 7 13.58 7 1 C5.35 1 3.7 1 2 1 Z " fill="#BAAECB" transform="translate(367,300)"/>
<path d="M0 0 C-0.33 1.65 -0.66 3.3 -1 5 C-1.66 4.01 -2.32 3.02 -3 2 C-9.31693331 1.09758096 -14.68406329 3.27832857 -19.6640625 6.98046875 C-21.42753868 8.41615181 -23.17359238 9.87359717 -24.8984375 11.35546875 C-27 13 -27 13 -29 13 C-29.20625 13.5775 -29.4125 14.155 -29.625 14.75 C-31.49750888 17.81410544 -33.96958519 19.15539968 -37 21 C-37 20.01 -37 19.02 -37 18 C-36.01 17.67 -35.02 17.34 -34 17 C-34 16.34 -34 15.68 -34 15 C-33.34 15 -32.68 15 -32 15 C-31.72929687 14.4121875 -31.45859375 13.824375 -31.1796875 13.21875 C-29.30792149 9.69834241 -26.64582878 6.95588684 -24 4 C-23.38125 3.236875 -22.7625 2.47375 -22.125 1.6875 C-16.48209825 -2.79362786 -6.0289041 -4.0192694 0 0 Z " fill="#BE17C2" transform="translate(338,177)"/>
<path d="M0 0 C0.66 0 1.32 0 2 0 C2 1.32 2 2.64 2 4 C2.928125 4.2165625 2.928125 4.2165625 3.875 4.4375 C6 5 6 5 8 6 C8.33 5.01 8.66 4.02 9 3 C8.43393721 7.69023454 7.81462495 12.34500026 7 17 C4.36 17 1.72 17 -1 17 C-2.905247 11.89665983 -4.42589023 7.53657294 -4 2 C-2.68 2 -1.36 2 0 2 C0 1.34 0 0.68 0 0 Z " fill="#D7D2DD" transform="translate(121,322)"/>
<path d="M0 0 C2.64516087 2.64516087 2.32873984 4.00056515 2.375 7.6875 C2.24720146 14.81013843 0.54530062 18.24832366 -4.3125 23.5 C-5.6428125 24.7375 -5.6428125 24.7375 -7 26 C-8.27481087 27.26684331 -9.54550408 28.5378408 -10.8125 29.8125 C-11.875 30.875 -12.9375 31.9375 -14 33 C-14.33 31.68 -14.66 30.36 -15 29 C-14.34 29 -13.68 29 -13 29 C-12.938125 28.21625 -12.87625 27.4325 -12.8125 26.625 C-12.544375 25.75875 -12.27625 24.8925 -12 24 C-10.33927151 23.31867549 -8.672233 22.65257873 -7 22 C-5.12126155 18.63804698 -4.46409402 14.93348211 -3.57421875 11.203125 C-2.58406525 7.40416871 -1.28713258 3.70694183 0 0 Z " fill="#C323A8" transform="translate(229,135)"/>
<path d="M0 0 C5.05564431 0.08139678 8.83439271 0.86498295 12.6875 4.3125 C13.22375 4.93125 13.76 5.55 14.3125 6.1875 C11.5588485 5.7015615 9.15996266 5.12509836 6.5625 4.0625 C0.91966849 2.54327613 -3.80389214 3.17324961 -8.9375 5.9375 C-11.73601434 8.22719355 -14.30942604 10.45970928 -16.6875 13.1875 C-16.6875 14.1775 -16.6875 15.1675 -16.6875 16.1875 C-17.3475 16.1875 -18.0075 16.1875 -18.6875 16.1875 C-18.51347656 16.74953125 -18.33945313 17.3115625 -18.16015625 17.890625 C-17.63696654 20.43306755 -17.78545162 22.37202337 -18.125 24.9375 C-18.22683594 25.73671875 -18.32867187 26.5359375 -18.43359375 27.359375 C-18.51738281 27.96265625 -18.60117188 28.5659375 -18.6875 29.1875 C-19.3475 29.1875 -20.0075 29.1875 -20.6875 29.1875 C-21.50113208 19.84579831 -20.87765809 11.6617222 -14.6875 4.1875 C-11.40309522 2.43878976 -8.33340357 1.77111922 -4.6875 1.1875 C-3.6875 0.1875 -3.6875 0.1875 0 0 Z " fill="#6311E5" transform="translate(272.6875,119.8125)"/>
<path d="M0 0 C7.35678392 -0.36180905 7.35678392 -0.36180905 10 1.125 C11.47901666 3.89815624 11.38601984 5.91184125 11 9 C10 10.875 10 10.875 8 12 C5.28121737 12.24131207 2.7407889 12.1347929 0 12 C0 8.04 0 4.08 0 0 Z " fill="#301A5D" transform="translate(200,306)"/>
<path d="M0 0 C0.99 0 1.98 0 3 0 C3 3.96 3 7.92 3 12 C4.32 11.34 5.64 10.68 7 10 C7 7.03 7 4.06 7 1 C8.32 1.66 9.64 2.32 11 3 C11.36258993 9.28489209 11.36258993 9.28489209 9.875 12.21875 C8 14 8 14 5.08203125 14.390625 C4.00308594 14.34421875 2.92414063 14.2978125 1.8125 14.25 C0.72582031 14.21390625 -0.36085938 14.1778125 -1.48046875 14.140625 C-2.72763672 14.07101562 -2.72763672 14.07101562 -4 14 C-5.09658936 10.71023192 -4.79953138 9.28696233 -4 6 C-3.01 5.67 -2.02 5.34 -1 5 C-0.67 3.35 -0.34 1.7 0 0 Z " fill="#2E1560" transform="translate(266,352)"/>
<path d="M0 0 C0.33 0.66 0.66 1.32 1 2 C1.66 2 2.32 2 3 2 C3.33 1.34 3.66 0.68 4 0 C5.00732399 1.93370231 6.00563288 3.87210306 7 5.8125 C7.8353125 7.43091797 7.8353125 7.43091797 8.6875 9.08203125 C10 12 10 12 10 15 C7.03 15 4.06 15 1 15 C0.32694982 13.39850114 -0.33822227 11.79368971 -1 10.1875 C-1.37125 9.29417969 -1.7425 8.40085937 -2.125 7.48046875 C-3 5 -3 5 -3 2 C-2.01 2 -1.02 2 0 2 C0 1.34 0 0.68 0 0 Z " fill="#C6BDD3" transform="translate(210,324)"/>
<path d="M0 0 C0.66 0.33 1.32 0.66 2 1 C1.34 1.721875 0.68 2.44375 0 3.1875 C-3.28603949 8.06393583 -2.80500486 14.38672283 -2 20 C-0.73437964 22.39608933 -0.73437964 22.39608933 1 24 C1.66 24 2.32 24 3 24 C3.680625 25.2375 3.680625 25.2375 4.375 26.5 C4.91125 27.325 5.4475 28.15 6 29 C7.32 29 8.64 29 10 29 C10 29.66 10 30.32 10 31 C3.09222148 30.88090037 3.09222148 30.88090037 0.203125 28.55078125 C-4.47557092 23.21197229 -6.28760804 18.59808705 -6.3125 11.4375 C-6.32925781 10.32246094 -6.34601563 9.20742187 -6.36328125 8.05859375 C-5.96506542 4.70587341 -5.3713686 3.36026149 -3 1 C-2.01 0.67 -1.02 0.34 0 0 Z " fill="#DC6A8D" transform="translate(258,243)"/>
<path d="M0 0 C0.33 1.32 0.66 2.64 1 4 C1.99 4 2.98 4 4 4 C4.33 3.34 4.66 2.68 5 2 C6.1875 3.5625 6.1875 3.5625 7 6 C5.6875 9.4375 5.6875 9.4375 4 13 C3.30859478 15.77888613 3.30859478 15.77888613 3 18 C0.23723823 17.47731534 -2.3260876 16.89130413 -5 16 C-4.80664062 15.43152344 -4.61328125 14.86304688 -4.4140625 14.27734375 C-2.81863577 9.54635062 -1.33099414 4.81205575 0 0 Z " fill="#CCC7D3" transform="translate(128,310)"/>
<path d="M0 0 C1.32 0.33 2.64 0.66 4 1 C3.9312809 6.51803023 3.84339326 12.03529115 3.73754883 17.55273438 C3.70424798 19.43057747 3.67623224 21.3085219 3.65356445 23.18652344 C3.62011258 25.88260175 3.56780359 28.577747 3.51171875 31.2734375 C3.50213387 32.53756973 3.50213387 32.53756973 3.49235535 33.82723999 C3.43237305 36.19287109 3.43237305 36.19287109 3 40 C-0.08888522 42.05925681 -0.70935927 42.2390374 -4.1875 42.125 C-5.445625 42.08375 -6.70375 42.0425 -8 42 C-7.67 41.34 -7.34 40.68 -7 40 C-4.36 40 -1.72 40 1 40 C0.67 26.8 0.34 13.6 0 0 Z " fill="#1A0449" transform="translate(375,299)"/>
<path d="M0 0 C-0.25 1.875 -0.25 1.875 -1 4 C-2.32467746 4.6837045 -3.65863633 5.34964186 -5 6 C-6.26804566 8.0335948 -6.26804566 8.0335948 -7 10 C-7.556875 9.7525 -8.11375 9.505 -8.6875 9.25 C-11.24050936 8.71646324 -11.24050936 8.71646324 -13.75 10.9375 C-14.4925 11.618125 -15.235 12.29875 -16 13 C-18.475 12.01 -18.475 12.01 -21 11 C-21.99 11.99 -22.98 12.98 -24 14 C-23.34 14 -22.68 14 -22 14 C-22 14.66 -22 15.32 -22 16 C-24.46800047 14.84826645 -26.04783565 13.95216435 -28 12 C-28 11.01 -28 10.02 -28 9 C-26.96101562 8.93683594 -25.92203125 8.87367188 -24.8515625 8.80859375 C-16.39090692 8.12435067 -10.56618323 7.06344031 -3.8203125 1.4609375 C-2 0 -2 0 0 0 Z " fill="#840CD6" transform="translate(176,211)"/>
<path d="M0 0 C-1.48529611 4.45588832 -5.0642601 6.76642609 -9 9 C-16.11074674 11.28509027 -22.47086274 10.33402754 -29 7 C-26.43335871 5.71667936 -24.67490819 5.97169257 -21.8125 6.0625 C-17.06966424 6.12474194 -13.48203593 5.430437 -9 4 C-8.34 4.33 -7.68 4.66 -7 5 C-6.87625 4.360625 -6.7525 3.72125 -6.625 3.0625 C-6.315625 2.0415625 -6.315625 2.0415625 -6 1 C-4 0 -4 0 0 0 Z " fill="#E04F93" transform="translate(290,267)"/>
<path d="M0 0 C2.72977064 -0.08126109 5.4571017 -0.14061663 8.1875 -0.1875 C9.34088867 -0.22520508 9.34088867 -0.22520508 10.51757812 -0.26367188 C15.2197028 -0.32421425 18.11834041 0.03624789 22 3 C21.835 3.78375 21.67 4.5675 21.5 5.375 C20.87269677 8.66834196 21.14549078 10.79559043 22 14 C21.01 14.33 20.02 14.66 19 15 C19 13.35 19 11.7 19 10 C18.071875 9.5978125 18.071875 9.5978125 17.125 9.1875 C15 8 15 8 13 5 C13.33 4.67 13.66 4.34 14 4 C11.69 4 9.38 4 7 4 C6.67 4.99 6.34 5.98 6 7 C5.01 7 4.02 7 3 7 C3.33 5.35 3.66 3.7 4 2 C2.68 1.34 1.36 0.68 0 0 Z " fill="#D4D1D7" transform="translate(193,299)"/>
<path d="M0 0 C2.64 0 5.28 0 8 0 C8.12375 1.093125 8.2475 2.18625 8.375 3.3125 C8.75464801 7.07381802 8.75464801 7.07381802 11 10 C10.625 13.6875 10.625 13.6875 10 17 C8 15 8 15 6 12 C5.34 12 4.68 12 4 12 C3.3291288 10.3767313 2.66342971 8.75132422 2 7.125 C1.62875 6.22007812 1.2575 5.31515625 0.875 4.3828125 C0 2 0 2 0 0 Z " fill="#D9D7DF" transform="translate(107,300)"/>
<path d="M0 0 C1.875 1.125 1.875 1.125 3 3 C3.44242648 6.46567407 3.38665268 8.33214537 1.625 11.375 C1.08875 11.91125 0.5525 12.4475 0 13 C-0.66 13 -1.32 13 -2 13 C-1.67 12.01 -1.34 11.02 -1 10 C-0.96045766 7.66700175 -0.95598268 5.33291811 -1 3 C-2.32 2.34 -3.64 1.68 -5 1 C-5.02698189 2.62490954 -5.04638757 4.24994633 -5.0625 5.875 C-5.07410156 6.77992188 -5.08570313 7.68484375 -5.09765625 8.6171875 C-5.16249257 11.0168585 -5.16249257 11.0168585 -4 13 C-5.875 12.6875 -5.875 12.6875 -8 12 C-10.16551116 8.75173326 -10.55156953 7.76905843 -10 4 C-7.16144342 -0.03948437 -4.8329989 -0.71980835 0 0 Z " fill="#B8A8CF" transform="translate(221,352)"/>
<path d="M0 0 C1.875 1.0625 1.875 1.0625 3 3 C3.65882353 9.14901961 3.65882353 9.14901961 1.5 11.9375 C1.005 12.288125 0.51 12.63875 0 13 C-0.66 12.67 -1.32 12.34 -2 12 C-1.67 11.34 -1.34 10.68 -1 10 C-0.95977609 7.6670134 -0.95679753 5.33293334 -1 3 C-2.32 3 -3.64 3 -5 3 C-5 6.3 -5 9.6 -5 13 C-6.32 12.34 -7.64 11.68 -9 11 C-9.36180905 3.64321608 -9.36180905 3.64321608 -7.875 1 C-5.10184376 -0.47901666 -3.08815875 -0.38601984 0 0 Z " fill="#AF9DC9" transform="translate(258,352)"/>
<path d="M0 0 C3 1 3 1 5.4375 3.9375 C7.67613927 6.61294693 8.8250163 7.82408011 12 9 C12 9.99 12 10.98 12 12 C12.66 12 13.32 12 14 12 C14 12.66 14 13.32 14 14 C15.32 14.66 16.64 15.32 18 16 C18 16.99 18 17.98 18 19 C18.99 19 19.98 19 21 19 C22.60546875 20.75 22.60546875 20.75 24.1875 23 C24.71730469 23.7425 25.24710938 24.485 25.79296875 25.25 C26.19128906 25.8275 26.58960938 26.405 27 27 C26.67 27.66 26.34 28.32 26 29 C25.63648438 28.55269531 25.27296875 28.10539062 24.8984375 27.64453125 C21.53152149 23.59559892 18.08942033 20.30633984 14 17 C9.0551823 12.32246974 4.29277305 7.2841324 0 2 C0 1.34 0 0.68 0 0 Z " fill="#650FCC" transform="translate(154,227)"/>
<path d="M0 0 C0.33 0.66 0.66 1.32 1 2 C0.67 2.99 0.34 3.98 0 5 C-0.66 5 -1.32 5 -2 5 C-1.67 5.99 -1.34 6.98 -1 8 C-1.5053125 8.32613281 -2.010625 8.65226563 -2.53125 8.98828125 C-3.1809375 9.42527344 -3.830625 9.86226562 -4.5 10.3125 C-5.1496875 10.74175781 -5.799375 11.17101562 -6.46875 11.61328125 C-6.9740625 12.07089844 -7.479375 12.52851563 -8 13 C-8 13.99 -8 14.98 -8 16 C-8.639375 16.12375 -9.27875 16.2475 -9.9375 16.375 C-10.618125 16.58125 -11.29875 16.7875 -12 17 C-12.33 17.66 -12.66 18.32 -13 19 C-14.32 18.34 -15.64 17.68 -17 17 C-13.24172913 12.39611818 -9.37336029 8.41183078 -4.83203125 4.578125 C-3.13809049 3.11895215 -1.55835516 1.60177682 0 0 Z " fill="#C44A98" transform="translate(289,208)"/>
<path d="M0 0 C0.99 0 1.98 0 3 0 C3 1.98 3 3.96 3 6 C3.66 6 4.32 6 5 6 C5 5.34 5 4.68 5 4 C5.66 4 6.32 4 7 4 C6.01 2.68 5.02 1.36 4 0 C5.65 0.33 7.3 0.66 9 1 C8.67 2.32 8.34 3.64 8 5 C7.34 5 6.68 5 6 5 C6 6.65 6 8.3 6 10 C5.34 9.67 4.68 9.34 4 9 C3.67 9.99 3.34 10.98 3 12 C4.32 12 5.64 12 7 12 C7.33 11.01 7.66 10.02 8 9 C8.33 10.32 8.66 11.64 9 13 C6.03 13 3.06 13 0 13 C0 8.71 0 4.42 0 0 Z " fill="#BFAFD6" transform="translate(282,352)"/>
<path d="M0 0 C-1.65 1.98 -3.3 3.96 -5 6 C-3.68 5.67 -2.36 5.34 -1 5 C-0.67 6.65 -0.34 8.3 0 10 C-3.96 9.67 -7.92 9.34 -12 9 C-10.51724138 3.06896552 -10.51724138 3.06896552 -9 1 C-2.71428571 -1.35714286 -2.71428571 -1.35714286 0 0 Z " fill="#EB5890" transform="translate(161,168)"/>
<path d="M0 0 C8 0 8 0 10.5 2 C10.995 2.66 11.49 3.32 12 4 C9 4 9 4 2 2 C2.33 9.59 2.66 17.18 3 25 C2.01 25 1.02 25 0 25 C0 16.75 0 8.5 0 0 Z " fill="#1D0847" transform="translate(283,307)"/>
<path d="M0 0 C0.99 1.32 1.98 2.64 3 4 C2.10861328 4.37898437 2.10861328 4.37898437 1.19921875 4.765625 C-1.26245306 6.14730935 -2.45242171 7.53938174 -4.1875 9.75 C-7.84309941 14.07671378 -11.94310111 17.4127494 -17 20 C-17.99 20 -18.98 20 -20 20 C-19.28714844 19.3709375 -18.57429687 18.741875 -17.83984375 18.09375 C-12.68403443 13.48613575 -7.79155518 8.90532745 -3.33984375 3.59375 C-2 2 -2 2 0 0 Z " fill="#A11AC4" transform="translate(184,197)"/>
<path d="M0 0 C-0.33 1.65 -0.66 3.3 -1 5 C-1.66 4.01 -2.32 3.02 -3 2 C-9.35266405 1.09247656 -14.6902282 3.32706528 -19.734375 6.98046875 C-22.19602959 8.94492474 -24.61548493 10.94286713 -27 13 C-27.66 12.67 -28.32 12.34 -29 12 C-28.51789063 11.61328125 -28.03578125 11.2265625 -27.5390625 10.828125 C-26.90742188 10.30734375 -26.27578125 9.7865625 -25.625 9.25 C-24.99851562 8.73953125 -24.37203125 8.2290625 -23.7265625 7.703125 C-21.8883258 6.09709238 -21.8883258 6.09709238 -21.0546875 3.875 C-20 2 -20 2 -17.96875 1.171875 C-11.922198 0.13860346 -6.1320653 -0.23484505 0 0 Z " fill="#D21DB2" transform="translate(338,177)"/>
<path d="M0 0 C1.32 0.66 2.64 1.32 4 2 C4.28571429 9.42857143 4.28571429 9.42857143 2 13 C0.68 12.67 -0.64 12.34 -2 12 C-2.05395478 10.37536158 -2.09277195 8.75021459 -2.125 7.125 C-2.14820313 6.22007812 -2.17140625 5.31515625 -2.1953125 4.3828125 C-2 2 -2 2 0 0 Z " fill="#2A125B" transform="translate(254,353)"/>
<path d="M0 0 C1.9375 0.8125 1.9375 0.8125 4 2 C4.33 2.99 4.66 3.98 5 5 C6.46235062 6.48629143 6.46235062 6.48629143 8.25 7.875 C12.6668657 11.53158554 16.68598416 15.29060907 20 20 C17.69921875 20.24609375 17.69921875 20.24609375 15 20 C13.26953125 18.28515625 13.26953125 18.28515625 11.8125 16.0625 C9.88837056 12.99415787 9.88837056 12.99415787 7 11 C7 11.66 7 12.32 7 13 C6.34 13 5.68 13 5 13 C5.268125 12.443125 5.53625 11.88625 5.8125 11.3125 C5.874375 10.549375 5.93625 9.78625 6 9 C4.37660195 7.29115995 2.70680947 5.62553283 1 4 C0.1875 1.6875 0.1875 1.6875 0 0 Z " fill="#9816B9" transform="translate(316,154)"/>
<path d="M0 0 C0.66 0 1.32 0 2 0 C0.43528652 3.84066037 -2.06034127 6.13033315 -5 9 C-5.61875 9.825 -6.2375 10.65 -6.875 11.5 C-9.58532633 14.68861921 -12.53179362 16.66563032 -16 19 C-16.33 17.35 -16.66 15.7 -17 14 C-15.68 14 -14.36 14 -13 14 C-12.67 13.01 -12.34 12.02 -12 11 C-11.01 11 -10.02 11 -9 11 C-9 10.34 -9 9.68 -9 9 C-7 7 -7 7 -4 6 C-4 4.68 -4 3.36 -4 2 C-2.68 2 -1.36 2 0 2 C0 1.34 0 0.68 0 0 Z " fill="#C628A8" transform="translate(337,218)"/>
<path d="M0 0 C2.97 0.495 2.97 0.495 6 1 C3.66918786 6.72108435 -1.22850416 10.31913178 -6 14 C-5.39301257 9.87248551 -3.96189209 6.6678852 -2 3 C-1.34 3 -0.68 3 0 3 C0 2.01 0 1.02 0 0 Z " fill="#D437A4" transform="translate(310,240)"/>
<path d="M0 0 C1.32 0.33 2.64 0.66 4 1 C3.3503125 1.81404297 3.3503125 1.81404297 2.6875 2.64453125 C2.130625 3.35996094 1.57375 4.07539063 1 4.8125 C0.443125 5.52019531 -0.11375 6.22789062 -0.6875 6.95703125 C-2.27025683 9.01595999 -2.27025683 9.01595999 -2 12 C-2.66 12 -3.32 12 -4 12 C-3.82597656 12.56203125 -3.65195313 13.1240625 -3.47265625 13.703125 C-2.94946654 16.24556755 -3.09795162 18.18452337 -3.4375 20.75 C-3.53933594 21.54921875 -3.64117187 22.3484375 -3.74609375 23.171875 C-3.82988281 23.77515625 -3.91367188 24.3784375 -4 25 C-4.66 25 -5.32 25 -6 25 C-6.86589563 15.05823537 -5.15965495 8.52264433 0 0 Z " fill="#530EDF" transform="translate(258,124)"/>
<path d="M0 0 C6.09796544 0.28175418 12.38288773 1.36111119 18.125 3.4375 C18.455 4.4275 18.785 5.4175 19.125 6.4375 C18.795 7.0975 18.465 7.7575 18.125 8.4375 C18.785 8.4375 19.445 8.4375 20.125 8.4375 C19.795 9.0975 19.465 9.7575 19.125 10.4375 C18.135 9.7775 17.145 9.1175 16.125 8.4375 C16.125 7.7775 16.125 7.1175 16.125 6.4375 C11.45055613 4.54245519 7.760503 3.29873337 2.6875 3.3125 C1.26630859 3.30863281 1.26630859 3.30863281 -0.18359375 3.3046875 C-2.57640459 3.42276525 -4.58836153 3.75637365 -6.875 4.4375 C-5.13821454 0.73235769 -4.13019381 0.4663122 0 0 Z " fill="#400260" transform="translate(207.875,117.5625)"/>
<path d="M0 0 C3.3 0 6.6 0 10 0 C10 1.98 10 3.96 10 6 C6.7 6 3.4 6 0 6 C0 4.02 0 2.04 0 0 Z " fill="#DAD6DF" transform="translate(244,315)"/>
<path d="M0 0 C1.875 0.125 1.875 0.125 4 1 C5.64661571 4.6068725 6.27162597 6.1851221 5 10 C3.34385343 10.38218767 1.67542976 10.71395102 0 11 C-1.89885096 9.10114904 -1.12367506 6.42752097 -1.1328125 3.91015625 C-1 2 -1 2 0 0 Z " fill="#1C074D" transform="translate(239,353)"/>
<path d="M0 0 C0 2.64 0 5.28 0 8 C-0.66 8 -1.32 8 -2 8 C-1.8453125 9.0828125 -1.8453125 9.0828125 -1.6875 10.1875 C-2.1329965 14.1969685 -3.94234106 15.49827905 -7 18 C-9.3125 18.8125 -9.3125 18.8125 -11 19 C-11 18.34 -11 17.68 -11 17 C-9.35 16.67 -7.7 16.34 -6 16 C-6 13.69 -6 11.38 -6 9 C-5.34 8.67 -4.68 8.34 -4 8 C-4 5.69 -4 3.38 -4 1 C-2 0 -2 0 0 0 Z M-3 2 C-2 4 -2 4 -2 4 Z " fill="#D019B7" transform="translate(230,255)"/>
<path d="M0 0 C0.99 0.99 1.98 1.98 3 3 C1.35 3.33 -0.3 3.66 -2 4 C-2 4.99 -2 5.98 -2 7 C-3.32 7.33 -4.64 7.66 -6 8 C-6 8.66 -6 9.32 -6 10 C-9.52948291 11.66670026 -11.28272326 12.13583456 -15 11 C-14.45730469 10.60167969 -13.91460937 10.20335937 -13.35546875 9.79296875 C-12.64003906 9.26316406 -11.92460937 8.73335937 -11.1875 8.1875 C-10.47980469 7.66542969 -9.77210938 7.14335937 -9.04296875 6.60546875 C-7.00506194 5.06955352 -7.00506194 5.06955352 -5.375 3.375 C-3.7504299 1.7504299 -2.08428649 0.93433532 0 0 Z " fill="#D64F93" transform="translate(167,157)"/>
<path d="M0 0 C0.66 0 1.32 0 2 0 C2 4.29 2 8.58 2 13 C1.01 13 0.02 13 -1 13 C-1.33 11.35 -1.66 9.7 -2 8 C-2.33 8 -2.66 8 -3 8 C-3.33 5.69 -3.66 3.38 -4 1 C-3.01 1 -2.02 1 -1 1 C-1 1.66 -1 2.32 -1 3 C-0.34 3 0.32 3 1 3 C0.67 2.01 0.34 1.02 0 0 Z M-3 12 C-2.34 12.33 -1.68 12.66 -1 13 C-2 15 -2 15 -4 16 C-3.67 14.68 -3.34 13.36 -3 12 Z " fill="#230B53" transform="translate(280,352)"/>
<path d="M0 0 C0.33 0 0.66 0 1 0 C1.62440191 8.11722488 1.62440191 8.11722488 -0.8125 11.5625 C-3 13 -3 13 -6 13 C-7.67099977 13.31088368 -9.33871537 13.64080332 -11 14 C-7.25 10.125 -7.25 10.125 -5 9 C-3.91296778 7.15261692 -3.91296778 7.15261692 -2.9375 5 C-1.08474576 1.08474576 -1.08474576 1.08474576 0 0 Z " fill="#D5D2DA" transform="translate(304,319)"/>
<path d="M0 0 C3.875 0.875 3.875 0.875 5 2 C5.1875 5.4375 5.1875 5.4375 5 9 C4.34 9.66 3.68 10.32 3 11 C0.875 10.625 0.875 10.625 -1 10 C-1.125 2.25 -1.125 2.25 0 0 Z " fill="#1A064D" transform="translate(216,353)"/>
<path d="M0 0 C0.99 0.33 1.98 0.66 3 1 C3.33 1.99 3.66 2.98 4 4 C4.99 3.67 5.98 3.34 7 3 C7 3.66 7 4.32 7 5 C8.32 5.66 9.64 6.32 11 7 C11 7.99 11 8.98 11 10 C8.03 10 5.06 10 2 10 C1.34 6.7 0.68 3.4 0 0 Z " fill="#DAD8DD" transform="translate(342,329)"/>
<path d="M0 0 C2 2 2 2 2.1953125 4.8203125 C2.16050781 6.45613281 2.16050781 6.45613281 2.125 8.125 C2.10695312 9.22070312 2.08890625 10.31640625 2.0703125 11.4453125 C2.04710937 12.28835937 2.02390625 13.13140625 2 14 C0.68 14.33 -0.64 14.66 -2 15 C-2 15.66 -2 16.32 -2 17 C-2.66 17 -3.32 17 -4 17 C-4.35316012 12.05575834 -3.30254044 9.32877603 -1 5 C-0.30092586 2.26427415 -0.30092586 2.26427415 0 0 Z " fill="#D51EAF" transform="translate(229,135)"/>
<path d="M0 0 C3.88971874 3.16605013 7.45035823 6.45035823 11 10 C11.99 10.66 12.98 11.32 14 12 C14 12.66 14 13.32 14 14 C15.32 14.33 16.64 14.66 18 15 C18 15.99 18 16.98 18 18 C17.34 18 16.68 18 16 18 C16 17.34 16 16.68 16 16 C15.443125 15.938125 14.88625 15.87625 14.3125 15.8125 C10.98840316 14.64457408 9.31020022 12.61417393 7 10 C6.67 9.2575 6.34 8.515 6 7.75 C5.09725562 5.69722976 5.09725562 5.69722976 2.375 5.25 C1.59125 5.1675 0.8075 5.085 0 5 C0 3.35 0 1.7 0 0 Z " fill="#7811C6" transform="translate(298,136)"/>
<path d="M0 0 C2.31 0 4.62 0 7 0 C7 3.3 7 6.6 7 10 C6.01 10 5.02 10 4 10 C3.67 9.34 3.34 8.68 3 8 C2.01 7.67 1.02 7.34 0 7 C0 4.69 0 2.38 0 0 Z " fill="#DDD8DF" transform="translate(332,300)"/>
<path d="M0 0 C6.51541091 0.39487339 10.76684198 5.50195044 14.9375 10.0625 C17.09046443 13.12884327 17.53551657 14.35848736 17 18 C14.74754119 15.31158141 13.11786042 13.35358125 12 10 C10.35 9.67 8.7 9.34 7 9 C6.67 7.02 6.34 5.04 6 3 C4.02 2.34 2.04 1.68 0 1 C0 0.67 0 0.34 0 0 Z " fill="#C01DA4" transform="translate(332,174)"/>
<path d="M0 0 C1.0725 0.2475 2.145 0.495 3.25 0.75 C2.92 1.74 2.59 2.73 2.25 3.75 C0.6 2.76 -1.05 1.77 -2.75 0.75 C-2.77698189 2.37490954 -2.79638757 3.99994633 -2.8125 5.625 C-2.82410156 6.52992188 -2.83570313 7.43484375 -2.84765625 8.3671875 C-2.91249257 10.7668585 -2.91249257 10.7668585 -1.75 12.75 C-4.61724686 12.17655063 -5.6114515 11.8885485 -7.75 9.75 C-8.2167512 6.17157414 -8.15228636 4.37756672 -6.1875 1.3125 C-3.75 -0.25 -3.75 -0.25 0 0 Z " fill="#AC9AC4" transform="translate(241.75,352.25)"/>
<path d="M0 0 C0.33 1.32 0.66 2.64 1 4 C1.99 4 2.98 4 4 4 C3.67 4.66 3.34 5.32 3 6 C2.01 6 1.02 6 0 6 C0.53625 6.7425 1.0725 7.485 1.625 8.25 C3 11 3 11 2.5625 13.1875 C0.39688351 15.69961513 -1.84626711 16.17728707 -5 17 C-4.31063929 13.08878502 -3.21749819 9.44491404 -1.9375 5.6875 C-1.57527344 4.61886719 -1.21304687 3.55023438 -0.83984375 2.44921875 C-0.56269531 1.64097656 -0.28554688 0.83273437 0 0 Z M-1 10 C0 12 0 12 0 12 Z " fill="#D2CDDB" transform="translate(323,322)"/>
<path d="M0 0 C1.32 0 2.64 0 4 0 C5.25664978 2.90600261 6 4.79604584 6 8 C8.31 8 10.62 8 13 8 C12.67 8.99 12.34 9.98 12 11 C9.4375 12.1875 9.4375 12.1875 7 13 C6.05598958 11.2421875 5.11197917 9.484375 4.16796875 7.7265625 C2.95236507 5.69497635 2.95236507 5.69497635 0 4 C0 2.68 0 1.36 0 0 Z " fill="#1F094D" transform="translate(205,331)"/>
<path d="M0 0 C0.5625 1.9375 0.5625 1.9375 1 4 C0 5 0 5 -2.72265625 5.09765625 C-4.37587891 5.08025391 -4.37587891 5.08025391 -6.0625 5.0625 C-7.16722656 5.05347656 -8.27195313 5.04445313 -9.41015625 5.03515625 C-10.69212891 5.01775391 -10.69212891 5.01775391 -12 5 C-10.21875 1.09375 -10.21875 1.09375 -8.25 0.25 C-5.48552496 -0.05716389 -2.77898594 -0.06315877 0 0 Z " fill="#D9D7DB" transform="translate(256,333)"/>
<path d="M0 0 C0 4.5172204 -2.04413392 7.00716673 -5.12109375 10.203125 C-5.88550781 10.87859375 -6.64992188 11.5540625 -7.4375 12.25 C-8.58025391 13.27867187 -8.58025391 13.27867187 -9.74609375 14.328125 C-11.92817335 15.94672131 -13.34777634 16.5891772 -16 17 C-15.01 15.515 -15.01 15.515 -14 14 C-13.34 14 -12.68 14 -12 14 C-11.7525 13.4225 -11.505 12.845 -11.25 12.25 C-9.81700012 9.67060021 -8.21575324 7.93878408 -6 6 C-5.34 6 -4.68 6 -4 6 C-3.566875 5.071875 -3.566875 5.071875 -3.125 4.125 C-2 2 -2 2 0 0 Z " fill="#430760" transform="translate(316,242)"/>
<path d="M0 0 C0.99 0.495 0.99 0.495 2 1 C2 4.3 2 7.6 2 11 C2.804375 11.20625 3.60875 11.4125 4.4375 11.625 C5.283125 12.07875 6.12875 12.5325 7 13 C7.8125 16.125 7.8125 16.125 8 19 C7.01 19 6.02 19 5 19 C0.88147822 14.39694625 -0.12749861 11.9848693 -0.0625 5.875 C-0.05347656 4.77929688 -0.04445312 3.68359375 -0.03515625 2.5546875 C-0.02355469 1.71164063 -0.01195312 0.86859375 0 0 Z " fill="#DB4984" transform="translate(134,196)"/>
<path d="M0 0 C-1.25169275 3.75507824 -3.17641277 5.24058521 -6 8 C-6.9066941 9.09526581 -7.80279382 10.19939786 -8.6875 11.3125 C-9.8321875 12.6428125 -9.8321875 12.6428125 -11 14 C-11.66 14 -12.32 14 -13 14 C-13 14.66 -13 15.32 -13 16 C-13.99 16.66 -14.98 17.32 -16 18 C-16.99 17.67 -17.98 17.34 -19 17 C-17.625 15.5 -17.625 15.5 -16 14 C-15.34 14 -14.68 14 -14 14 C-13.773125 13.443125 -13.54625 12.88625 -13.3125 12.3125 C-11.62622733 9.34144815 -9.469646 7.35477875 -7 5 C-6.113125 4.071875 -5.22625 3.14375 -4.3125 2.1875 C-2 0 -2 0 0 0 Z " fill="#9C0ED6" transform="translate(317,178)"/>
<path d="M0 0 C2.17443738 2.0967789 4.13883896 4.17788742 6 6.5625 C7.83302361 8.99772657 7.83302361 8.99772657 9.9375 10.4375 C12.79691624 12.60372442 14.76044331 15.20055413 17 18 C16.67 18.66 16.34 19.32 16 20 C0.87912088 7.69230769 0.87912088 7.69230769 0 0 Z " fill="#560EDD" transform="translate(254,149)"/>
<path d="M0 0 C1.90318884 2.85478326 2.4619099 4.41941308 3.125 7.6875 C3.29257812 8.49574219 3.46015625 9.30398438 3.6328125 10.13671875 C3.75398438 10.75160156 3.87515625 11.36648438 4 12 C1.69 12 -0.62 12 -3 12 C-2.69230293 10.18667846 -2.37870936 8.37435655 -2.0625 6.5625 C-1.80146484 5.04849609 -1.80146484 5.04849609 -1.53515625 3.50390625 C-1 1 -1 1 0 0 Z " fill="#230F4D" transform="translate(335,311)"/>
<path d="M0 0 C7.26 0 14.52 0 22 0 C22 0.66 22 1.32 22 2 C11.11 2.495 11.11 2.495 0 3 C0 2.01 0 1.02 0 0 Z " fill="#1A0545" transform="translate(235,339)"/>
<path d="M0 0 C0.33 0 0.66 0 1 0 C1 2.97 1 5.94 1 9 C-2.97966457 10.98983228 -3.67675132 11.22400716 -7.75 10.625 C-8.54921875 10.51414062 -9.3484375 10.40328125 -10.171875 10.2890625 C-11.07679688 10.14597656 -11.07679688 10.14597656 -12 10 C-12.33 11.65 -12.66 13.3 -13 15 C-13.66 15 -14.32 15 -15 15 C-15 12.69 -15 10.38 -15 8 C-13.04174127 7.97305149 -11.08337774 7.95362782 -9.125 7.9375 C-8.03445312 7.92589844 -6.94390625 7.91429687 -5.8203125 7.90234375 C-3 8 -3 8 -1 9 C-0.67 6.03 -0.34 3.06 0 0 Z " fill="#1C0648" transform="translate(259,299)"/>
<path d="M0 0 C4.19334675 1.35861497 6.42798396 3.12926974 9.3125 6.4375 C10.00988281 7.21996094 10.70726562 8.00242188 11.42578125 8.80859375 C13 11 13 11 13 14 C11.1875 13.875 11.1875 13.875 9 13 C7.96567096 11.01753602 6.96761608 9.01586684 6 7 C3.95053601 5.14684743 3.95053601 5.14684743 2 4 C1.67 4.66 1.34 5.32 1 6 C0.34 6 -0.32 6 -1 6 C-0.67 4.02 -0.34 2.04 0 0 Z " fill="#AA16B7" transform="translate(210,226)"/>
<path d="M0 0 C2.64 0 5.28 0 8 0 C8 0.66 8 1.32 8 2 C8.99 2 9.98 2 11 2 C11 4.97 11 7.94 11 11 C10.67 11 10.34 11 10 11 C10 8.69 10 6.38 10 4 C5.38 4 0.76 4 -4 4 C-2.68 3.67 -1.36 3.34 0 3 C0 2.01 0 1.02 0 0 Z " fill="#260E59" transform="translate(166,328)"/>
<path d="M0 0 C2.475 0.495 2.475 0.495 5 1 C5.125 4.375 5.125 4.375 5 8 C4.34 8.66 3.68 9.32 3 10 C2.01 10 1.02 10 0 10 C0 6.7 0 3.4 0 0 Z " fill="#1A0643" transform="translate(269,354)"/>
<path d="M0 0 C0.7528125 -0.01417969 1.505625 -0.02835937 2.28125 -0.04296875 C4.74864173 0.21332722 6.36356256 0.95904847 8.5 2.1875 C5.74678819 3.10523727 3.76950092 3.16273732 0.8125 3.0625 C-3.99569841 2.97195012 -8.0631697 4.46206599 -12.5 6.1875 C-11.84 5.1975 -11.18 4.2075 -10.5 3.1875 C-9.84 3.1875 -9.18 3.1875 -8.5 3.1875 C-8.5 2.5275 -8.5 1.8675 -8.5 1.1875 C-5.61288129 0.36729582 -2.99986689 0.02568379 0 0 Z " fill="#320287" transform="translate(272.5,117.8125)"/>
<path d="M0 0 C0.33 0 0.66 0 1 0 C0.855625 1.216875 0.71125 2.43375 0.5625 3.6875 C-0.11863226 9.7787685 -0.55598069 15.88764914 -1 22 C-3.83453939 19.16546061 -3.29999688 17.20098712 -3.3125 13.25 C-3.32925781 12.03828125 -3.34601563 10.8265625 -3.36328125 9.578125 C-2.97404161 5.74432384 -1.92298868 3.3081494 0 0 Z " fill="#B33F7D" transform="translate(135,186)"/>
<path d="M0 0 C0.598125 0.309375 1.19625 0.61875 1.8125 0.9375 C4.08956772 2.10209704 4.08956772 2.10209704 7 3 C7.33 3.99 7.66 4.98 8 6 C10.00016466 7.20882096 10.00016466 7.20882096 12 8 C12 8.66 12 9.32 12 10 C12.66 10 13.32 10 14 10 C14.28875 10.639375 14.5775 11.27875 14.875 11.9375 C15.82823451 14.15206079 15.82823451 14.15206079 18 15 C17.67 15.66 17.34 16.32 17 17 C11.05420971 11.96146926 5.30244838 6.71977071 0 1 C0 0.67 0 0.34 0 0 Z " fill="#410271" transform="translate(202,216)"/>
<path d="M0 0 C2.79192205 -0.05380578 5.5828141 -0.09357669 8.375 -0.125 C9.1690625 -0.14175781 9.963125 -0.15851563 10.78125 -0.17578125 C12.85492015 -0.19335473 14.92883241 -0.10335168 17 0 C17.66 0.66 18.32 1.32 19 2 C15.04 2.66 11.08 3.32 7 4 C6.67 4.99 6.34 5.98 6 7 C5.01 7 4.02 7 3 7 C3.33 5.35 3.66 3.7 4 2 C2.68 1.34 1.36 0.68 0 0 Z " fill="#B4ACC2" transform="translate(193,299)"/>
<path d="M0 0 C0.66 0.33 1.32 0.66 2 1 C-0.10171029 6.25427572 -1.97008396 7.64557121 -7 10 C-8.40466953 12.05093145 -8.40466953 12.05093145 -9 14 C-9.99 14 -10.98 14 -12 14 C-12 14.66 -12 15.32 -12 16 C-12.66 15.67 -13.32 15.34 -14 15 C-13.04882866 13.8274869 -12.08882991 12.66212985 -11.125 11.5 C-10.59132812 10.8503125 -10.05765625 10.200625 -9.5078125 9.53125 C-8.76144531 8.77328125 -8.76144531 8.77328125 -8 8 C-7.34 8 -6.68 8 -6 8 C-6 7.34 -6 6.68 -6 6 C-4.37550757 4.29220027 -2.70779973 2.62449243 -1 1 C-0.67 0.67 -0.34 0.34 0 0 Z " fill="#AE417E" transform="translate(150,170)"/>
<path d="M0 0 C2.61148294 2.19027601 3.87462152 3.55635306 4.8125 6.875 C5.00620013 10.10333557 4.67598259 12.84541458 4 16 C3.67 16 3.34 16 3 16 C2.81824219 15.33613281 2.63648438 14.67226563 2.44921875 13.98828125 C1.10476709 9.26546387 -0.14984737 5.07164661 -3 1 C-2.01 0.67 -1.02 0.34 0 0 Z " fill="#DED9E4" transform="translate(296,306)"/>
<path d="M0 0 C0.66 0 1.32 0 2 0 C7 5.47619048 7 5.47619048 7 8 C7.66 8 8.32 8 9 8 C9 9.65 9 11.3 9 13 C8.34 13 7.68 13 7 13 C5.7109375 11.5390625 5.7109375 11.5390625 4.375 9.625 C3.92898437 8.99851562 3.48296875 8.37203125 3.0234375 7.7265625 C2 6 2 6 2 4 C1.34 4 0.68 4 0 4 C0 2.68 0 1.36 0 0 Z " fill="#C8B9DC" transform="translate(198,352)"/>
<path d="M0 0 C3.63 0 7.26 0 11 0 C11 0.66 11 1.32 11 2 C8.03 2 5.06 2 2 2 C2.66 3.32 3.32 4.64 4 6 C4 6.99 4 7.98 4 9 C2.68 9 1.36 9 0 9 C0 6.03 0 3.06 0 0 Z " fill="#1C054B" transform="translate(162,322)"/>
<path d="M0 0 C2 0.9375 2 0.9375 4 3 C4.36475845 6.02534949 4.22893297 8.96663814 4 12 C3.67 12 3.34 12 3 12 C2.67 9.36 2.34 6.72 2 4 C1.34 4.66 0.68 5.32 0 6 C0.66 6 1.32 6 2 6 C2 7.65 2 9.3 2 11 C0.0625 9.875 0.0625 9.875 -2 8 C-2.75 4.8125 -2.75 4.8125 -3 2 C-2.01 1.34 -1.02 0.68 0 0 Z " fill="#BEB9C7" transform="translate(215,303)"/>
<path d="M0 0 C-0.66 1.65 -1.32 3.3 -2 5 C-4.79322218 4.91327254 -7.58312528 4.80644643 -10.375 4.6875 C-11.1690625 4.66494141 -11.963125 4.64238281 -12.78125 4.61914062 C-14.86215581 4.52214925 -16.93441332 4.27005175 -19 4 C-19.66 3.01 -20.32 2.02 -21 1 C-15.72 1.66 -10.44 2.32 -5 3 C-5 2.34 -5 1.68 -5 1 C-2 0 -2 0 0 0 Z " fill="#40026F" transform="translate(221,274)"/>
<path d="M0 0 C0.99 0.33 1.98 0.66 3 1 C4.29534145 5.85753045 4.49915868 11.0084132 4 16 C3.34 16.99 2.68 17.98 2 19 C1.34 19 0.68 19 0 19 C0.2475 17.515 0.2475 17.515 0.5 16 C1.25171319 10.70579137 1.71575798 5.14727395 0 0 Z " fill="#430162" transform="translate(230,132)"/>
<path d="M0 0 C0 0.33 0 0.66 0 1 C-2.64 1 -5.28 1 -8 1 C-8 1.99 -8 2.98 -8 4 C-11.73437848 4.87867729 -15.16774573 5.08912219 -19 5 C-14.67111516 -1.49332726 -7.03804304 -0.22541775 0 0 Z " fill="#B92BA1" transform="translate(216,120)"/>
<path d="M0 0 C0.99 0 1.98 0 3 0 C3 4.29 3 8.58 3 13 C2.01 13 1.02 13 0 13 C0 8.71 0 4.42 0 0 Z " fill="#CDC0DD" transform="translate(266,352)"/>
<path d="M0 0 C0.33 0 0.66 0 1 0 C1 1.65 1 3.3 1 5 C1.66 5 2.32 5 3 5 C3.33 3.68 3.66 2.36 4 1 C4.3227506 5.62609198 3.84450614 8.28026121 1 12 C0.34 12 -0.32 12 -1 12 C-1.33 12.66 -1.66 13.32 -2 14 C-3.49341969 11.01316063 -2.40648676 9.04839022 -1.5625 5.875 C-1.27503906 4.77929688 -0.98757813 3.68359375 -0.69140625 2.5546875 C-0.46324219 1.71164062 -0.23507812 0.86859375 0 0 Z " fill="#CFCAD9" transform="translate(298,317)"/>
<path d="M0 0 C-0.25 1.875 -0.25 1.875 -1 4 C-2.32467746 4.6837045 -3.65863633 5.34964186 -5 6 C-6.26804566 8.0335948 -6.26804566 8.0335948 -7 10 C-7.99 9.34 -8.98 8.68 -10 8 C-8.48502075 3.75805811 -4.70198172 0 0 0 Z " fill="#820CE9" transform="translate(176,211)"/>
<path d="M0 0 C0.09765625 6.15234375 0.09765625 6.15234375 0 8 C-0.33 8.33 -0.66 8.66 -1 9 C-1.33 9.99 -1.66 10.98 -2 12 C-3.32 11.67 -4.64 11.34 -6 11 C-5.34 11 -4.68 11 -4 11 C-4.03480469 10.37351562 -4.06960937 9.74703125 -4.10546875 9.1015625 C-4.13253906 8.28429687 -4.15960938 7.46703125 -4.1875 6.625 C-4.22230469 5.81289063 -4.25710937 5.00078125 -4.29296875 4.1640625 C-4.19628906 3.44992187 -4.09960938 2.73578125 -4 2 C-1 0 -1 0 0 0 Z " fill="#19034A" transform="translate(211,355)"/>
<path d="M0 0 C0.66 0.99 1.32 1.98 2 3 C1.34 3 0.68 3 0 3 C-0.185625 4.7634375 -0.185625 4.7634375 -0.375 6.5625 C-0.86435935 10.54120426 -1.8055205 14.17766559 -3 18 C-3.66 18 -4.32 18 -5 18 C-5.33 18.99 -5.66 19.98 -6 21 C-7 19 -7 19 -6.328125 16.6796875 C-5.97234375 15.75414062 -5.6165625 14.82859375 -5.25 13.875 C-4.693125 12.40740234 -4.693125 12.40740234 -4.125 10.91015625 C-3.75375 9.94980469 -3.3825 8.98945313 -3 8 C-2.41518413 6.43805428 -1.83163138 4.87563434 -1.25 3.3125 C-0.8375 2.219375 -0.425 1.12625 0 0 Z " fill="#433069" transform="translate(138,304)"/>
<path d="M0 0 C0.33 0.66 0.66 1.32 1 2 C2.32303717 2.3721042 3.65737935 2.70630173 5 3 C6 4 6 4 6.0625 6.5625 C6.041875 7.366875 6.02125 8.17125 6 9 C5.01 9.495 5.01 9.495 4 10 C3.67 8.02 3.34 6.04 3 4 C0.03 4 -2.94 4 -6 4 C-4.03617993 2.49440461 -2.21736634 1.10868317 0 0 Z " fill="#220E4F" transform="translate(113,296)"/>
<path d="M0 0 C2.25028329 0.14139481 4.50022206 0.28828003 6.75 0.4375 C8.62945312 0.55931641 8.62945312 0.55931641 10.546875 0.68359375 C13.18317553 0.92515522 15.48037294 1.24283934 18 2 C15.62672281 4.37327719 15.05025894 4.2957818 11.8125 4.3125 C7.21736516 4.23070957 4.0670722 3.07680283 0 1 C0 0.67 0 0.34 0 0 Z " fill="#B9508D" transform="translate(261,273)"/>
<path d="M0 0 C0.99 0.66 1.98 1.32 3 2 C-1.18461538 7.78461538 -1.18461538 7.78461538 -5.3125 8.875 C-6.6428125 8.936875 -6.6428125 8.936875 -8 9 C-7.04663979 7.68388323 -6.08714226 6.37221039 -5.125 5.0625 C-4.59132813 4.33160156 -4.05765625 3.60070312 -3.5078125 2.84765625 C-2 1 -2 1 0 0 Z " fill="#C43F9B" transform="translate(298,199)"/>
<path d="M0 0 C1.134375 0.020625 2.26875 0.04125 3.4375 0.0625 C3.1075 2.7025 2.7775 5.3425 2.4375 8.0625 C1.7775 8.0625 1.1175 8.0625 0.4375 8.0625 C-0.8515625 6.53125 -0.8515625 6.53125 -2.1875 4.5625 C-2.85652344 3.58796875 -2.85652344 3.58796875 -3.5390625 2.59375 C-3.87679687 2.0884375 -4.21453125 1.583125 -4.5625 1.0625 C-3.5625 0.0625 -3.5625 0.0625 0 0 Z " fill="#442F6E" transform="translate(204.5625,351.9375)"/>
<path d="M0 0 C1.32 0 2.64 0 4 0 C4.103125 0.598125 4.20625 1.19625 4.3125 1.8125 C4.84018987 4.08110966 4.84018987 4.08110966 6.5625 5.5625 C7.036875 6.036875 7.51125 6.51125 8 7 C8 7.99 8 8.98 8 10 C6.68 10 5.36 10 4 10 C3.67 10.99 3.34 11.98 3 13 C2.01751476 8.9472484 1.91840426 5.16138263 2 1 C1.34 0.67 0.68 0.34 0 0 Z " fill="#2D115E" transform="translate(256,331)"/>
<path d="M0 0 C2.31 0 4.62 0 7 0 C7 1.65 7 3.3 7 5 C5.0625 5.5625 5.0625 5.5625 3 6 C2.67 5.67 2.34 5.34 2 5 C0.65252916 4.76924918 -0.70377565 4.58846937 -2.0625 4.4375 C-3.361875 4.293125 -4.66125 4.14875 -6 4 C-6 3.67 -6 3.34 -6 3 C-2.535 2.505 -2.535 2.505 1 2 C0.67 1.34 0.34 0.68 0 0 Z " fill="#C3BECB" transform="translate(289,303)"/>
<path d="M0 0 C1 2 1 2 1 6 C-2.08350711 8.29060528 -5.41275276 9.66759388 -9 11 C-7.59155282 7.78475695 -5.89655214 5.67816132 -3.375 3.25 C-2.74335938 2.63640625 -2.11171875 2.0228125 -1.4609375 1.390625 C-0.73777344 0.70226562 -0.73777344 0.70226562 0 0 Z " fill="#C55D8B" transform="translate(263,234)"/>
<path d="M0 0 C2.31 0 4.62 0 7 0 C7 0.33 7 0.66 7 1 C5.02 1 3.04 1 1 1 C1.226875 2.258125 1.45375 3.51625 1.6875 4.8125 C2.1995826 8.72231986 2.1995826 8.72231986 0.5625 11 C0.046875 11.33 -0.46875 11.66 -1 12 C-2.11658501 7.31034294 -1.80619523 4.46236469 0 0 Z " fill="#CDC7D9" transform="translate(131,300)"/>
<path d="M0 0 C0.66 0.33 1.32 0.66 2 1 C0.87895467 2.31587941 -0.24696965 3.62760353 -1.375 4.9375 C-2.00148437 5.66839844 -2.62796875 6.39929688 -3.2734375 7.15234375 C-5 9 -5 9 -7 10 C-7.33 8.68 -7.66 7.36 -8 6 C-3.375 2 -3.375 2 0 2 C0 1.34 0 0.68 0 0 Z " fill="#C72CA7" transform="translate(211,168)"/>
<path d="M0 0 C2 3 2 3 2 5 C2.99 5.33 3.98 5.66 5 6 C4.34 8.31 3.68 10.62 3 13 C0.59932894 10.59932894 0.44215079 9.22778045 -0.1875 5.9375 C-0.36667969 5.03902344 -0.54585938 4.14054687 -0.73046875 3.21484375 C-0.81941406 2.48394531 -0.90835938 1.75304687 -1 1 C-0.67 0.67 -0.34 0.34 0 0 Z " fill="#260F51" transform="translate(120,309)"/>
<path d="M0 0 C0.33 0.99 0.66 1.98 1 3 C-2.23931347 5.86554653 -4.69919493 6.66916884 -9 7 C-11.70167686 6.79030306 -14.31796155 6.41617838 -17 6 C-17 5.67 -17 5.34 -17 5 C-16.10796875 4.89042969 -15.2159375 4.78085937 -14.296875 4.66796875 C-13.12640625 4.50941406 -11.9559375 4.35085938 -10.75 4.1875 C-9.58984375 4.03667969 -8.4296875 3.88585937 -7.234375 3.73046875 C-4.01605334 3.00362557 -2.41668345 2.18338975 0 0 Z " fill="#480B58" transform="translate(285,272)"/>
<path d="M0 0 C0.66 0.66 1.32 1.32 2 2 C-2.24740335 5.45101522 -6.61105071 8.73279209 -11 12 C-11.66 11.67 -12.32 11.34 -13 11 C-11.21079529 9.3514184 -9.4187995 7.70606879 -7.625 6.0625 C-6.86316406 5.35963867 -6.86316406 5.35963867 -6.0859375 4.64257812 C-2.2265625 1.11328125 -2.2265625 1.11328125 0 0 Z " fill="#9E15CD" transform="translate(177,206)"/>
<path d="M0 0 C0 0.99 0 1.98 0 3 C-2.31 2.67 -4.62 2.34 -7 2 C-7.268125 2.639375 -7.53625 3.27875 -7.8125 3.9375 C-9 6 -9 6 -12 7 C-12 6.34 -12 5.68 -12 5 C-11.34 5 -10.68 5 -10 5 C-10 4.01 -10 3.02 -10 2 C-9.34 2 -8.68 2 -8 2 C-8 1.34 -8 0.68 -8 0 C-5.13822943 -1.43088528 -3.06624227 -0.59991697 0 0 Z " fill="#DC33A8" transform="translate(205,125)"/>
<path d="M0 0 C4.29 0 8.58 0 13 0 C13.33 1.32 13.66 2.64 14 4 C13.34 4 12.68 4 12 4 C11.67 3.34 11.34 2.68 11 2 C8.87423218 1.53348793 8.87423218 1.53348793 6.4375 1.375 C5.61121094 1.30023438 4.78492188 1.22546875 3.93359375 1.1484375 C3.29550781 1.09945313 2.65742188 1.05046875 2 1 C1.896875 1.78375 1.79375 2.5675 1.6875 3.375 C1 6 1 6 -2 8 C-2 7.01 -2 6.02 -2 5 C-1.34 5 -0.68 5 0 5 C-0.33 4.01 -0.66 3.02 -1 2 C-0.67 1.34 -0.34 0.68 0 0 Z " fill="#160049" transform="translate(329,332)"/>
<path d="M0 0 C1.32 0 2.64 0 4 0 C3.67 0.66 3.34 1.32 3 2 C2.67 2 2.34 2 2 2 C2.020625 2.94875 2.04125 3.8975 2.0625 4.875 C2 8 2 8 1 10 C0.34 10 -0.32 10 -1 10 C-1 10.66 -1 11.32 -1 12 C-1.99 12 -2.98 12 -4 12 C-3.67 10.68 -3.34 9.36 -3 8 C-2.67 8.33 -2.34 8.66 -2 9 C-1.34 6.03 -0.68 3.06 0 0 Z " fill="#D9D8D5" transform="translate(133,302)"/>
<path d="M0 0 C3.24446179 0.41199515 4.96590885 0.61434668 7.9375 -0.5 C8.2675 0.49 8.5975 1.48 8.9375 2.5 C6.87507383 2.52717692 4.81254297 2.5464758 2.75 2.5625 C1.60144531 2.57410156 0.45289063 2.58570313 -0.73046875 2.59765625 C-3.65550586 2.51192832 -6.22566291 2.17849023 -9.0625 1.5 C-9.0625 1.17 -9.0625 0.84 -9.0625 0.5 C-5.83793389 -0.40690922 -3.27160453 -0.48309674 0 0 Z " fill="#B516CB" transform="translate(210.0625,272.5)"/>
<path d="M0 0 C2.72334905 1.63400943 3.89585423 2.77608658 5.25 5.6875 C6.14014343 9.61896683 6.13872119 12.97708562 6 17 C5.67 17 5.34 17 5 17 C4.67 14.03 4.34 11.06 4 8 C2.68 7.67 1.36 7.34 0 7 C0 4.69 0 2.38 0 0 Z " fill="#A91D9E" transform="translate(226,127)"/>
<path d="M0 0 C0.66 0 1.32 0 2 0 C2 3.96 2 7.92 2 12 C3.32 12.66 4.64 13.32 6 14 C4.02 14.33 2.04 14.66 0 15 C-0.66 13.68 -1.32 12.36 -2 11 C-1.34 10.34 -0.68 9.68 0 9 C0.24253813 6.78927023 0.24253813 6.78927023 0.125 4.375 C0.10695313 3.55773437 0.08890625 2.74046875 0.0703125 1.8984375 C0.04710937 1.27195312 0.02390625 0.64546875 0 0 Z " fill="#281255" transform="translate(260,353)"/>
<path d="M0 0 C0.66 0.33 1.32 0.66 2 1 C2 3.64 2 6.28 2 9 C1.01 9.495 1.01 9.495 0 10 C0 9.34 0 8.68 0 8 C-1.32 7.67 -2.64 7.34 -4 7 C-3.67 5.68 -3.34 4.36 -3 3 C-2.01 3 -1.02 3 0 3 C0 2.01 0 1.02 0 0 Z " fill="#DDDADD" transform="translate(343,315)"/>
<path d="M0 0 C1.4540625 0.0309375 1.4540625 0.0309375 2.9375 0.0625 C2.9375 1.7125 2.9375 3.3625 2.9375 5.0625 C0.9575 5.0625 -1.0225 5.0625 -3.0625 5.0625 C-3.625 3.125 -3.625 3.125 -4.0625 1.0625 C-3.0625 0.0625 -3.0625 0.0625 0 0 Z " fill="#D9D7DD" transform="translate(253.0625,300.9375)"/>
<path d="M0 0 C2.0625 0.4375 2.0625 0.4375 4 1 C2.92492371 2.29854721 1.83956264 3.58858361 0.75 4.875 C0.14671875 5.59429687 -0.4565625 6.31359375 -1.078125 7.0546875 C-2.97087634 8.97052118 -4.53657727 9.96449045 -7 11 C-6.67 9.68 -6.34 8.36 -6 7 C-4.68 6.67 -3.36 6.34 -2 6 C-1.855625 5.195625 -1.71125 4.39125 -1.5625 3.5625 C-1 1 -1 1 0 0 Z " fill="#CE40A2" transform="translate(189,188)"/>
<path d="M0 0 C0.66 0 1.32 0 2 0 C3.32 2.31 4.64 4.62 6 7 C4.02 7 2.04 7 0 7 C-0.93423645 3.98968256 -1.04449911 3.13349732 0 0 Z " fill="#DBD8D9" transform="translate(212,331)"/>
<path d="M0 0 C3.63 0 7.26 0 11 0 C11.33 0.99 11.66 1.98 12 3 C3.42857143 3.14285714 3.42857143 3.14285714 0 2 C0 1.34 0 0.68 0 0 Z " fill="#E83F87" transform="translate(144,216)"/>
<path d="M0 0 C1.32 0.33 2.64 0.66 4 1 C2.71034824 2.37562854 1.37310707 3.70766393 0 5 C-0.66 5 -1.32 5 -2 5 C-2.28875 5.639375 -2.5775 6.27875 -2.875 6.9375 C-4 9 -4 9 -6 10 C-5.49477778 5.62140745 -2.82172778 3.18348776 0 0 Z " fill="#BF33A2" transform="translate(200,178)"/>
<path d="M0 0 C0.66 0.33 1.32 0.66 2 1 C2 1.33 2 1.66 2 2 C3.65 2 5.3 2 7 2 C7 2.66 7 3.32 7 4 C1.58461538 6.21538462 1.58461538 6.21538462 -1.375 5.125 C-1.91125 4.75375 -2.4475 4.3825 -3 4 C-2.01 2.68 -1.02 1.36 0 0 Z " fill="#D34099" transform="translate(174,146)"/>
<path d="M0 0 C0.33 0.66 0.66 1.32 1 2 C0.34 2 -0.32 2 -1 2 C-1 2.99 -1 3.98 -1 5 C-1.66 5 -2.32 5 -3 5 C-3 5.66 -3 6.32 -3 7 C-3.66 7 -4.32 7 -5 7 C-5.66 8.32 -6.32 9.64 -7 11 C-7.99 11 -8.98 11 -10 11 C-10 10.34 -10 9.68 -10 9 C-9.34 9 -8.68 9 -8 9 C-8 8.34 -8 7.68 -8 7 C-7.34 7 -6.68 7 -6 7 C-6 6.34 -6 5.68 -6 5 C-5.34 5 -4.68 5 -4 5 C-4 4.34 -4 3.68 -4 3 C-3.34 3 -2.68 3 -2 3 C-2 2.34 -2 1.68 -2 1 C-1.34 0.67 -0.68 0.34 0 0 Z " fill="#AE2E96" transform="translate(196,125)"/>
<path d="M0 0 C0.99 0.33 1.98 0.66 3 1 C3.36923077 7.52307692 3.36923077 7.52307692 1.5 9.9375 C1.005 10.288125 0.51 10.63875 0 11 C-0.66 10.67 -1.32 10.34 -2 10 C-1.34 6.7 -0.68 3.4 0 0 Z " fill="#C8B8DA" transform="translate(258,354)"/>
<path d="M0 0 C1.98 0.99 1.98 0.99 4 2 C4.1875 5.375 4.1875 5.375 4 9 C3.01 9.66 2.02 10.32 1 11 C0.67 7.37 0.34 3.74 0 0 Z " fill="#C7B9D9" transform="translate(273,353)"/>
<path d="M0 0 C2.64388491 5.28776983 3.5236458 9.24400477 2 15 C1.67 15 1.34 15 1 15 C0.87625 14.195625 0.7525 13.39125 0.625 12.5625 C0.315625 11.2940625 0.315625 11.2940625 0 10 C-0.66 9.67 -1.32 9.34 -2 9 C-1.34 6.03 -0.68 3.06 0 0 Z " fill="#CAC4D6" transform="translate(329,305)"/>
<path d="M0 0 C0.66 0.33 1.32 0.66 2 1 C1.59316505 3.35964273 1.10185661 4.85934088 -0.3125 6.8125 C-2 8 -2 8 -4.1875 7.6875 C-4.785625 7.460625 -5.38375 7.23375 -6 7 C-5.34 7 -4.68 7 -4 7 C-3.896875 6.401875 -3.79375 5.80375 -3.6875 5.1875 C-2.91123545 2.71756736 -1.92911079 1.67748765 0 0 Z " fill="#EA3488" transform="translate(165,209)"/>
<path d="M0 0 C0.99 0.495 0.99 0.495 2 1 C1.01 1.495 1.01 1.495 0 2 C0 1.34 0 0.68 0 0 Z M-6 4 C-3.6875 4.1875 -3.6875 4.1875 -2 5 C-2.639375 5.61875 -3.27875 6.2375 -3.9375 6.875 C-6.03883584 8.82597612 -6.03883584 8.82597612 -7 11 C-8.32 10.34 -9.64 9.68 -11 9 C-8.75 6.4375 -8.75 6.4375 -6 4 Z " fill="#CE3AA4" transform="translate(191,132)"/>
<path d="M0 0 C6.6 0 13.2 0 20 0 C20 0.33 20 0.66 20 1 C14.06 1 8.12 1 2 1 C1.67 2.32 1.34 3.64 1 5 C1 4.34 1 3.68 1 3 C0.34 3 -0.32 3 -1 3 C-0.67 2.01 -0.34 1.02 0 0 Z " fill="#18053F" transform="translate(156,339)"/>
<path d="M0 0 C0.66 0 1.32 0 2 0 C1.5359375 1.1446875 1.5359375 1.1446875 1.0625 2.3125 C-0.62061683 6.5697955 -1.24623188 10.12420285 -1.5625 14.6875 C-1.64628906 15.86699219 -1.73007813 17.04648438 -1.81640625 18.26171875 C-1.87699219 19.16535156 -1.93757812 20.06898438 -2 21 C-2.33 21 -2.66 21 -3 21 C-3.55353075 6.21867882 -3.55353075 6.21867882 0 0 Z " fill="#320290" transform="translate(254,128)"/>
<path d="M0 0 C1.32 0.33 2.64 0.66 4 1 C1.36 4.3 -1.28 7.6 -4 11 C-4 7.80389448 -3.45328458 6.58282374 -2 3.8125 C-1.62875 3.09707031 -1.2575 2.38164063 -0.875 1.64453125 C-0.441875 0.83048828 -0.441875 0.83048828 0 0 Z " fill="#4C0DCF" transform="translate(258,124)"/>
<path d="M0 0 C0.99 0.33 1.98 0.66 3 1 C3.33 3.31 3.66 5.62 4 8 C6.97 8.495 6.97 8.495 10 9 C10.33 8.34 10.66 7.68 11 7 C11 7.99 11 8.98 11 10 C8.03 10 5.06 10 2 10 C1.34 6.7 0.68 3.4 0 0 Z " fill="#D3C6E4" transform="translate(342,329)"/>
<path d="M0 0 C0.99 0 1.98 0 3 0 C3.33 1.32 3.66 2.64 4 4 C3.360625 4.28875 2.72125 4.5775 2.0625 4.875 C-0.15206079 5.82823451 -0.15206079 5.82823451 -1 8 C-1.66 8 -2.32 8 -3 8 C-3.33 6.68 -3.66 5.36 -4 4 C-3.01 3.67 -2.02 3.34 -1 3 C-0.67 2.01 -0.34 1.02 0 0 Z " fill="#C6C2CE" transform="translate(341,312)"/>
<path d="M0 0 C2.27795022 2.27795022 3.05219877 3.93787293 4 7 C3.625 9.3125 3.625 9.3125 3 11 C3 10.34 3 9.68 3 9 C1.68 8.67 0.36 8.34 -1 8 C-1.125 2.25 -1.125 2.25 0 0 Z " fill="#352061" transform="translate(107,302)"/>
<path d="M0 0 C2.75 0.25 2.75 0.25 5 1 C5 1.66 5 2.32 5 3 C4.360625 3.12375 3.72125 3.2475 3.0625 3.375 C2.381875 3.58125 1.70125 3.7875 1 4 C0.67 4.66 0.34 5.32 0 6 C-1.32 5.34 -2.64 4.68 -4 4 C-2.3125 1.9375 -2.3125 1.9375 0 0 Z " fill="#D25196" transform="translate(276,221)"/>
<path d="M0 0 C1.45703125 1.01953125 1.45703125 1.01953125 3 3 C3.37644848 5.62939205 3.60133087 8.05072472 3.6875 10.6875 C3.72166016 11.38939453 3.75582031 12.09128906 3.79101562 12.81445312 C3.87329947 14.54241387 3.9383324 16.27118072 4 18 C3.34 18 2.68 18 2 18 C1.67 18.66 1.34 19.32 1 20 C1.01740234 18.33710938 1.01740234 18.33710938 1.03515625 16.640625 C1.04453792 15.17708502 1.05363771 13.71354322 1.0625 12.25 C1.07087891 11.52039063 1.07925781 10.79078125 1.08789062 10.0390625 C1.10391684 6.51329442 0.95292713 3.38965084 0 0 Z " fill="#58026B" transform="translate(349,188)"/>
<path d="M0 0 C2.875 0.625 2.875 0.625 6 2 C7.375 5.125 7.375 5.125 8 8 C3.96615872 5.92856799 2.07143201 4.03384128 0 0 Z " fill="#6B10C8" transform="translate(287,185)"/>
<path d="M0 0 C0.33 0 0.66 0 1 0 C1 5.28 1 10.56 1 16 C-1.31 16 -3.62 16 -6 16 C-3 14 -3 14 -1 13 C-0.53045739 9.95418731 -0.53045739 9.95418731 -0.375 6.4375 C-0.30023438 5.23996094 -0.22546875 4.04242188 -0.1484375 2.80859375 C-0.09945312 1.88175781 -0.05046875 0.95492188 0 0 Z " fill="#DDD2ED" transform="translate(199,323)"/>
<path d="M0 0 C0.66 0.33 1.32 0.66 2 1 C1.43628586 4.26954202 0.50037734 5.82575883 -2 8 C-2.66 7.67 -3.32 7.34 -4 7 C-4 5.35 -4 3.7 -4 2 C-2.125 0.9375 -2.125 0.9375 0 0 Z " fill="#DDD9E2" transform="translate(341,309)"/>
<path d="M0 0 C0.66 0 1.32 0 2 0 C2.33 0.99 2.66 1.98 3 3 C-2.14285714 8.57142857 -2.14285714 8.57142857 -6 9 C-6 8.34 -6 7.68 -6 7 C-4.35 6.67 -2.7 6.34 -1 6 C-1.020625 5.195625 -1.04125 4.39125 -1.0625 3.5625 C-1 1 -1 1 0 0 Z " fill="#B71DB5" transform="translate(225,265)"/>
<path d="M0 0 C5.35152885 0.32433508 8.28280043 3.49704824 12 7 C9 8 9 8 6 7 C6 5.68 6 4.36 6 3 C4.02 2.34 2.04 1.68 0 1 C0 0.67 0 0.34 0 0 Z " fill="#A81AA4" transform="translate(332,174)"/>
<path d="M0 0 C2.95140299 0.6324435 5.488616 1.29873987 8 3 C9.75 6.125 9.75 6.125 11 9 C7.56247993 7.4722133 4.81046312 5.49818944 2 3 C2 2.34 2 1.68 2 1 C1.34 0.67 0.68 0.34 0 0 Z " fill="#BD25A7" transform="translate(216,121)"/>
<path d="M0 0 C0.33 0 0.66 0 1 0 C1.125 5.75 1.125 5.75 0 8 C-0.99 7.67 -1.98 7.34 -3 7 C-3.33 7.66 -3.66 8.32 -4 9 C-4.99 8.67 -5.98 8.34 -7 8 C-6.34 8 -5.68 8 -5 8 C-4.34 6.35 -3.68 4.7 -3 3 C-2.34 3 -1.68 3 -1 3 C-0.67 2.01 -0.34 1.02 0 0 Z " fill="#2E1660" transform="translate(221,312)"/>
<path d="M0 0 C0.93065133 2.60582371 1.14917407 3.64198224 0.0625 6.25 C-0.4634375 7.11625 -0.4634375 7.11625 -1 8 C-2.32 8 -3.64 8 -5 8 C-4.6875 6.0625 -4.6875 6.0625 -4 4 C-3.01 3.67 -2.02 3.34 -1 3 C-0.67 2.01 -0.34 1.02 0 0 Z " fill="#D11AA6" transform="translate(341,211)"/>
<path d="M0 0 C0.66 0.33 1.32 0.66 2 1 C-1.3 3.64 -4.6 6.28 -8 9 C-8.66 8.67 -9.32 8.34 -10 8 C-8.71064081 6.85157077 -7.41843421 5.70633773 -6.125 4.5625 C-5.04605469 3.60537109 -5.04605469 3.60537109 -3.9453125 2.62890625 C-2 1 -2 1 0 0 Z " fill="#DB24AB" transform="translate(319,181)"/>
<path d="M0 0 C1.32 0 2.64 0 4 0 C4.66 2.31 5.32 4.62 6 7 C4.02 6.01 2.04 5.02 0 4 C0 2.68 0 1.36 0 0 Z " fill="#2B155C" transform="translate(205,331)"/>
<path d="M0 0 C0.598125 0.33 1.19625 0.66 1.8125 1 C4.05386471 2.20787988 4.05386471 2.20787988 7 2 C6.34 4.31 5.68 6.62 5 9 C4.34 8.01 3.68 7.02 3 6 C2.195625 4.9790625 2.195625 4.9790625 1.375 3.9375 C0 2 0 2 0 0 Z " fill="#CECCCF" transform="translate(297,306)"/>
<path d="M0 0 C3.72450216 2.10515339 5.6795921 3.24267224 7.375 7.25 C7.684375 8.61125 7.684375 8.61125 8 10 C3.97881358 7.93506643 1.98665002 6.07786057 0 2 C0 1.34 0 0.68 0 0 Z " fill="#9B199F" transform="translate(223,238)"/>
<path d="M0 0 C2.31 0.33 4.62 0.66 7 1 C6.01 2.32 5.02 3.64 4 5 C4.66 5 5.32 5 6 5 C6 5.66 6 6.32 6 7 C3.53199953 5.84826645 1.95216435 4.95216435 0 3 C0 2.01 0 1.02 0 0 Z " fill="#640CDF" transform="translate(148,220)"/>
<path d="M0 0 C1.32 0.66 2.64 1.32 4 2 C4 2.66 4 3.32 4 4 C5.32 4.33 6.64 4.66 8 5 C8 5.99 8 6.98 8 8 C7.34 8 6.68 8 6 8 C6 7.34 6 6.68 6 6 C5.401875 5.896875 4.80375 5.79375 4.1875 5.6875 C1.71756736 4.91123545 0.67748765 3.92911079 -1 2 C-0.67 1.34 -0.34 0.68 0 0 Z " fill="#680DA8" transform="translate(308,146)"/>
<path d="M0 0 C0.33 1.32 0.66 2.64 1 4 C1.66 4 2.32 4 3 4 C3.33 3.01 3.66 2.02 4 1 C4.66 3.64 5.32 6.28 6 9 C2 8 2 8 0 5 C-0.125 2.3125 -0.125 2.3125 0 0 Z " fill="#9E8BB9" transform="translate(211,356)"/>
<path d="M0 0 C1.65 0.33 3.3 0.66 5 1 C4.67 2.32 4.34 3.64 4 5 C3.34 5 2.68 5 2 5 C2 6.65 2 8.3 2 10 C1.01 9.01 0.02 8.02 -1 7 C-0.34 6.67 0.32 6.34 1 6 C1 5.34 1 4.68 1 4 C1.66 4 2.32 4 3 4 C2.01 2.68 1.02 1.36 0 0 Z " fill="#765E9D" transform="translate(286,352)"/>
<path d="M0 0 C0.99 0.33 1.98 0.66 3 1 C2.1875 3.4375 2.1875 3.4375 1 6 C0.01 6.33 -0.98 6.66 -2 7 C-2.125 4.625 -2.125 4.625 -2 2 C-1.34 1.34 -0.68 0.68 0 0 Z " fill="#1B054B" transform="translate(254,353)"/>
<path d="M0 0 C0.33 0 0.66 0 1 0 C1.33 2.31 1.66 4.62 2 7 C1.01 6.67 0.02 6.34 -1 6 C-1.66 6.66 -2.32 7.32 -3 8 C-5.125 7.625 -5.125 7.625 -7 7 C-6.030625 6.401875 -5.06125 5.80375 -4.0625 5.1875 C-0.76947958 3.28872491 -0.76947958 3.28872491 0 0 Z " fill="#E0DDE0" transform="translate(300,325)"/>
<path d="M0 0 C2.18975773 3.28463659 2.99806563 6.20696275 4 10 C3.01 9.67 2.02 9.34 1 9 C1 8.34 1 7.68 1 7 C0.34 7 -0.32 7 -1 7 C-0.67 4.69 -0.34 2.38 0 0 Z " fill="#C2B9D2" transform="translate(348,325)"/>
<path d="M0 0 C0.33 1.32 0.66 2.64 1 4 C1.99 4 2.98 4 4 4 C3.67 4.66 3.34 5.32 3 6 C2.01 6 1.02 6 0 6 C0 7.32 0 8.64 0 10 C-0.99 10.33 -1.98 10.66 -3 11 C-2.01 7.37 -1.02 3.74 0 0 Z " fill="#CBC3D8" transform="translate(323,322)"/>
<path d="M0 0 C0.33 0 0.66 0 1 0 C1 4.29 1 8.58 1 13 C-0.32 12.34 -1.64 11.68 -3 11 C-2.690625 10.484375 -2.38125 9.96875 -2.0625 9.4375 C-0.70940713 6.33334577 -0.38640576 3.34884993 0 0 Z " fill="#C6C2CC" transform="translate(243,307)"/>
<path d="M0 0 C0.66 0.33 1.32 0.66 2 1 C2 3.97 2 6.94 2 10 C0.35 10.33 -1.3 10.66 -3 11 C-1.66666667 8.33333333 -0.33333333 5.66666667 1 3 C0.34 3 -0.32 3 -1 3 C-0.67 2.01 -0.34 1.02 0 0 Z " fill="#DFDBE8" transform="translate(216,306)"/>
<path d="M0 0 C1 3 1 3 1 5 C0.01 5 -0.98 5 -2 5 C-2 5.66 -2 6.32 -2 7 C-3.65 7.33 -5.3 7.66 -7 8 C-6.02133662 6.85373678 -5.04205413 5.70800212 -4.0625 4.5625 C-3.51722656 3.92441406 -2.97195313 3.28632813 -2.41015625 2.62890625 C-1.63204305 1.73008851 -0.84063472 0.84063472 0 0 Z " fill="#C15291" transform="translate(271,226)"/>
<path d="M0 0 C0 3 0 3 -1.75 4.9375 C-2.4925 5.618125 -3.235 6.29875 -4 7 C-4.7425 7.7425 -5.485 8.485 -6.25 9.25 C-6.8275 9.8275 -7.405 10.405 -8 11 C-8.66 10.67 -9.32 10.34 -10 10 C-6.66666667 6.66666667 -3.33333333 3.33333333 0 0 Z " fill="#58066A" transform="translate(220,162)"/>
<path d="M0 0 C3.875 0.875 3.875 0.875 5 2 C5.04092937 4.33297433 5.04241723 6.66705225 5 9 C4.67 9 4.34 9 4 9 C3.9175 8.21625 3.835 7.4325 3.75 6.625 C3.27193661 3.85250896 3.27193661 3.85250896 0.9375 2.6875 C0.298125 2.460625 -0.34125 2.23375 -1 2 C-0.67 1.34 -0.34 0.68 0 0 Z " fill="#2B1852" transform="translate(216,353)"/>
<path d="M0 0 C0 3 0 3 -1.1875 4.5625 C-3.32699313 6.25933938 -5.43483454 7.09872565 -8 8 C-7.34 6.68 -6.68 5.36 -6 4 C-5.34 4 -4.68 4 -4 4 C-4 3.34 -4 2.68 -4 2 C-2.68 1.34 -1.36 0.68 0 0 Z " fill="#CD2DB6" transform="translate(308,190)"/>
<path d="M0 0 C2.33524782 2.25740623 4.18705073 4.2805761 6 7 C5.67 7.99 5.34 8.98 5 10 C2.08772731 6.71195019 0.50298788 4.40114397 0 0 Z " fill="#4F0ED3" transform="translate(254,149)"/>
<path d="M0 0 C0.99 1.32 1.98 2.64 3 4 C2.01 5.485 2.01 5.485 1 7 C0.34 7 -0.32 7 -1 7 C-1.66 5.02 -2.32 3.04 -3 1 C-2.01 0.67 -1.02 0.34 0 0 Z " fill="#250B56" transform="translate(211,361)"/>
<path d="M0 0 C1.5 1.375 1.5 1.375 3 3 C3 3.66 3 4.32 3 5 C2.01 5 1.02 5 0 5 C-0.5625 3.0625 -0.5625 3.0625 -1 1 C-0.67 0.67 -0.34 0.34 0 0 Z M-2 4 C-1.34 4.33 -0.68 4.66 0 5 C-1 7 -1 7 -3 8 C-2.67 6.68 -2.34 5.36 -2 4 Z " fill="#280A61" transform="translate(279,360)"/>
<path d="M0 0 C0.68707555 2.49064888 1 4.37886292 1 7 C0.01 7 -0.98 7 -2 7 C-2.33 5.02 -2.66 3.04 -3 1 C-2.01 0.67 -1.02 0.34 0 0 Z " fill="#200559" transform="translate(242,356)"/>
<path d="M0 0 C0.99 0 1.98 0 3 0 C2.34 2.31 1.68 4.62 1 7 C0.34 7 -0.32 7 -1 7 C-1.04254356 5.00045254 -1.04080783 2.99958364 -1 1 C-0.67 0.67 -0.34 0.34 0 0 Z " fill="#1E0756" transform="translate(271,355)"/>
<path d="M0 0 C2.97 0.495 2.97 0.495 6 1 C5.67 2.98 5.34 4.96 5 7 C4.01 7 3.02 7 2 7 C2 6.01 2 5.02 2 4 C1.34 3.67 0.68 3.34 0 3 C0 2.01 0 1.02 0 0 Z " fill="#24075D" transform="translate(312,337)"/>
<path d="M0 0 C2.64 0 5.28 0 8 0 C6.1875 2 6.1875 2 4 4 C3.01 4 2.02 4 1 4 C0.67 2.68 0.34 1.36 0 0 Z " fill="#D4C9E2" transform="translate(107,300)"/>
<path d="M0 0 C2.64 1.98 5.28 3.96 8 6 C7.67 6.66 7.34 7.32 7 8 C6.21625 7.525625 5.4325 7.05125 4.625 6.5625 C3.11051322 5.66101977 1.5764103 4.78820515 0 4 C0 2.68 0 1.36 0 0 Z " fill="#410699" transform="translate(277,176)"/>
<path d="M0 0 C0.66 0.33 1.32 0.66 2 1 C-0.46153846 6.66153846 -0.46153846 6.66153846 -3.1875 8.375 C-3.785625 8.58125 -4.38375 8.7875 -5 9 C-3.7508258 5.54074837 -2.32472205 2.85306797 0 0 Z " fill="#BF538B" transform="translate(150,170)"/>
<path d="M0 0 C1.9375 0.8125 1.9375 0.8125 4 2 C4.33 2.99 4.66 3.98 5 5 C6.49985609 6.66710346 6.49985609 6.66710346 8 8 C4.74333728 7.43850643 3.04376677 6.62770014 1 4 C0.3125 1.8125 0.3125 1.8125 0 0 Z " fill="#8212B6" transform="translate(316,154)"/>
<path d="M0 0 C0.99 0.495 0.99 0.495 2 1 C1.67 1.66 1.34 2.32 1 3 C1.639375 3.12375 2.27875 3.2475 2.9375 3.375 C3.618125 3.58125 4.29875 3.7875 5 4 C5.33 4.66 5.66 5.32 6 6 C4.02 6 2.04 6 0 6 C0 4.02 0 2.04 0 0 Z " fill="#170348" transform="translate(163,308)"/>
<path d="M0 0 C0.33 1.32 0.66 2.64 1 4 C-0.32 4.99 -1.64 5.98 -3 7 C-3.33 5.35 -3.66 3.7 -4 2 C-2.68 2 -1.36 2 0 2 C0 1.34 0 0.68 0 0 Z " fill="#D12EAB" transform="translate(324,230)"/>
<path d="M0 0 C5.875 4.625 5.875 4.625 7 8 C6.34 8 5.68 8 5 8 C4.67 7.34 4.34 6.68 4 6 C1.98330173 4.86649466 1.98330173 4.86649466 0 4 C0 2.68 0 1.36 0 0 Z " fill="#330186" transform="translate(154,229)"/>
<path d="M0 0 C0.66 0.33 1.32 0.66 2 1 C1.67 1.66 1.34 2.32 1 3 C1.33 3.99 1.66 4.98 2 6 C2.66 6.33 3.32 6.66 4 7 C3.67 7.66 3.34 8.32 3 9 C-1.875 4.25 -1.875 4.25 -3 2 C-2.01 1.34 -1.02 0.68 0 0 Z " fill="#350167" transform="translate(328,160)"/>
<path d="M0 0 C0.33 0 0.66 0 1 0 C1 1.65 1 3.3 1 5 C-1.31 5 -3.62 5 -6 5 C-5.67 4.34 -5.34 3.68 -5 3 C-3.66666667 2.66666667 -2.33333333 2.33333333 -1 2 C-0.67 1.34 -0.34 0.68 0 0 Z " fill="#DED4ED" transform="translate(325,334)"/>
<path d="M0 0 C1.65 0 3.3 0 5 0 C4.67 1.65 4.34 3.3 4 5 C1.525 4.01 1.525 4.01 -1 3 C-0.67 2.01 -0.34 1.02 0 0 Z " fill="#1E0355" transform="translate(165,308)"/>
<path d="M0 0 C-1.29299694 2.88437779 -2.65941363 4.87219421 -5 7 C-5.33 5.35 -5.66 3.7 -6 2 C-2.25 0 -2.25 0 0 0 Z " fill="#C733A3" transform="translate(316,241)"/>
<path d="M0 0 C-1.0975223 2.99324263 -1.67682892 3.84610901 -4.625 5.25 C-5.40875 5.4975 -6.1925 5.745 -7 6 C-6.1875 3.5625 -6.1875 3.5625 -5 1 C-2 0 -2 0 0 0 Z " fill="#5A0EEE" transform="translate(267,122)"/>
<path d="M0 0 C1.65 1.65 3.3 3.3 5 5 C4.34 5.66 3.68 6.32 3 7 C1.5 5.75 1.5 5.75 0 4 C0 2.68 0 1.36 0 0 Z " fill="#2E1D54" transform="translate(199,357)"/>
<path d="M0 0 C2.64 0 5.28 0 8 0 C7.01 1.485 7.01 1.485 6 3 C4.68 3 3.36 3 2 3 C2 2.34 2 1.68 2 1 C1.34 0.67 0.68 0.34 0 0 Z " fill="#180444" transform="translate(192,339)"/>
<path d="M0 0 C-0.33 1.98 -0.66 3.96 -1 6 C-1.66 6 -2.32 6 -3 6 C-3.33 4.35 -3.66 2.7 -4 1 C-2 0 -2 0 0 0 Z " fill="#DAD5DD" transform="translate(212,327)"/>
<path d="M0 0 C2.31 0.33 4.62 0.66 7 1 C6.67 2.65 6.34 4.3 6 6 C5.7525 5.38125 5.505 4.7625 5.25 4.125 C3.79371361 1.64931313 2.62187494 1.04874998 0 0 Z " fill="#DBD4E2" transform="translate(208,301)"/>
<path d="M0 0 C0.99 0.33 1.98 0.66 3 1 C3 3.31 3 5.62 3 8 C0.9375 6.25 0.9375 6.25 -1 4 C-0.75 1.75 -0.75 1.75 0 0 Z " fill="#291459" transform="translate(300,299)"/>
<path d="M0 0 C-2.3125 2.0625 -2.3125 2.0625 -5 4 C-5.99 3.67 -6.98 3.34 -8 3 C-6 0 -6 0 -4 -0.75 C-2 -1 -2 -1 0 0 Z " fill="#CD5198" transform="translate(286,272)"/>
<path d="M0 0 C3.41158256 1.13719419 4.11854601 2.04342944 6 5 C6 5.66 6 6.32 6 7 C3.00675737 5.9024777 2.15389099 5.32317108 0.75 2.375 C0.5025 1.59125 0.255 0.8075 0 0 Z " fill="#4E048B" transform="translate(186,261)"/>
<path d="M0 0 C-2.3125 1.5625 -2.3125 1.5625 -5 3 C-5.99 2.67 -6.98 2.34 -8 2 C-8 1.34 -8 0.68 -8 0 C-4.71303767 -0.79953138 -3.28976808 -1.09658936 0 0 Z " fill="#710AF5" transform="translate(164,221)"/>
<path d="M0 0 C4.31392226 0.4793247 6.16569547 1.7457985 9 5 C4.68607774 4.5206753 2.83430453 3.2542015 0 0 Z " fill="#6411CE" transform="translate(278,121)"/>
</svg>
